<svg width="51" height="52" viewBox="0 0 51 52" fill="none" xmlns="http://www.w3.org/2000/svg">
<circle cx="25.0096" cy="26.4904" r="25.0096" fill="#F7F7F7"/>
<circle cx="25.0096" cy="26.4904" r="25.0096" stroke="#EBEBEB"/>
<path d="M32.6596 18.8402C32.6596 23.0652 29.2346 26.4902 25.0096 26.4902C20.7846 26.4902 17.3596 23.0652 17.3596 18.8402C17.3596 14.6152 20.7846 11.1902 25.0096 11.1902C29.2346 11.1902 32.6596 14.6152 32.6596 18.8402Z" fill="#FDA924"/>
<path d="M38.3971 36.0527C38.3971 37.0293 32.4033 43.0654 25.0096 43.0654C17.6159 43.0654 11.6221 37.0293 11.6221 36.0527C11.6221 34.4657 17.6159 30.3152 25.0096 30.3152C32.4033 30.3152 38.3971 34.4657 38.3971 36.0527Z" fill="#E62A2B"/>
</svg>
