<svg width="30.000000" height="30.000000" viewBox="0 0 30 30" fill="none" xmlns="http://www.w3.org/2000/svg" xmlns:xlink="http://www.w3.org/1999/xlink">
	<desc>
			Created with Pixso.
	</desc>
	<defs/>
	<path id="Vector" d="M12.22 4.73C11.64 3.28 10.5 2.27 8.84 2.13C6.46 1.94 4.83 2 2.76 2.02C1.71 2.04 0.8 2.77 0.58 3.8C0.28 5.18 1.34 6.5 2.76 6.5L12.7 6.5C12.29 5.03 12.22 4.73 12.22 4.73Z" fill="#FDA924" fill-opacity="1.000000" fill-rule="nonzero"/>
	<path id="Subtract" d="M6.35254 8.30005L8.95612 19.3652C9.1676 20.2642 9.97571 20.9 10.9065 20.9L24.4865 20.9C25.4173 20.9 26.2254 20.2642 26.4369 19.3652L27.8934 13.1752C28.4796 10.6835 26.5725 8.30005 23.9926 8.30005L6.35254 8.30005ZM12.0167 11.931C12.0167 12.4795 12.4614 12.9242 13.0098 12.9242L17.032 12.9242C17.5805 12.9242 18.0251 12.4795 18.0251 11.931C18.0251 11.3826 17.5805 10.938 17.032 10.938L13.0098 10.938C12.4614 10.938 12.0167 11.3826 12.0167 11.931Z" clip-rule="evenodd" fill="#E62A2B" fill-opacity="1.000000" fill-rule="evenodd"/>
	<path id="Vector" d="M8.17 26.76C8.27 25.33 9.47 24 10.98 23.66C12.4 23.34 13.61 24.26 13.61 25.66C13.6 27.07 12.49 28.46 11.02 28.88C9.39 29.36 8.06 28.25 8.17 26.76Z" fill="#FDA924" fill-opacity="1.000000" fill-rule="nonzero"/>
	<path id="Vector" d="" fill="#FFFFFF" fill-opacity="1.000000" fill-rule="evenodd"/>
	<path id="Vector" d="M21.78 26.76C21.89 25.33 23.08 24 24.59 23.66C26.02 23.34 27.23 24.26 27.22 25.66C27.21 27.07 26.1 28.46 24.63 28.88C23 29.36 21.67 28.25 21.78 26.76Z" fill="#FDA924" fill-opacity="1.000000" fill-rule="nonzero"/>
	<path id="Vector" d="" fill="#FFFFFF" fill-opacity="1.000000" fill-rule="evenodd"/>
</svg>
