<svg width="31.733337" height="30.600098" viewBox="0 0 31.7333 30.6001" fill="none" xmlns="http://www.w3.org/2000/svg" xmlns:xlink="http://www.w3.org/1999/xlink">
	<desc>
			Created with Pixso.
	</desc>
	<defs/>
	<path id="Vector" d="M13.85 3.1C13.19 1.45 11.9 0.3 10.02 0.15C7.32 -0.06 5.47 0 3.13 0.03C1.94 0.04 0.91 0.87 0.66 2.04C0.32 3.61 1.51 5.1 3.12 5.1L14.39 5.1C13.93 3.43 13.85 3.1 13.85 3.1Z" fill="#FDA924" fill-opacity="1.000000" fill-rule="nonzero"/>
	<path id="Subtract" d="M7.19958 7.14014L9.80316 18.2051C10.0146 19.104 10.8228 19.7402 11.7535 19.7402L25.3336 19.7402C26.2643 19.7402 27.0724 19.104 27.2839 18.2051L28.7404 12.0151C29.3267 9.52344 27.4196 7.14014 24.8396 7.14014L7.19958 7.14014ZM12.8638 10.771C12.8638 11.3198 13.3084 11.7642 13.8569 11.7642L17.879 11.7642C18.4276 11.7642 18.8721 11.3198 18.8721 10.771C18.8721 10.2227 18.4276 9.77783 17.879 9.77783L13.8569 9.77783C13.3084 9.77783 12.8638 10.2227 12.8638 10.771Z" clip-rule="evenodd" fill="#FFFFFF" fill-opacity="1.000000" fill-rule="evenodd"/>
	<path id="Vector" d="M9.26 28.06C9.38 26.44 10.73 24.93 12.45 24.55C14.06 24.18 15.43 25.23 15.42 26.82C15.42 28.41 14.15 29.99 12.49 30.47C10.64 31 9.13 29.76 9.26 28.06Z" fill="#FDA924" fill-opacity="1.000000" fill-rule="nonzero"/>
	<path id="Vector" d="" fill="#FFFFFF" fill-opacity="1.000000" fill-rule="evenodd"/>
	<path id="Vector" d="M24.69 28.06C24.81 26.44 26.16 24.93 27.87 24.55C29.48 24.18 30.86 25.23 30.85 26.82C30.84 28.41 29.58 29.99 27.91 30.47C26.07 31 24.56 29.76 24.69 28.06Z" fill="#FDA924" fill-opacity="1.000000" fill-rule="nonzero"/>
	<path id="Vector" d="" fill="#FFFFFF" fill-opacity="1.000000" fill-rule="evenodd"/>
</svg>
