<svg width="52.000000" height="52.000000" viewBox="0 0 52 52" fill="none" xmlns="http://www.w3.org/2000/svg" xmlns:xlink="http://www.w3.org/1999/xlink">
	<desc>
			Created with Pixso.
	</desc>
	<defs>
		<clipPath id="clip95_2807">
			<rect id="simple-icons:ticktick" rx="0.000000" width="51.000000" height="51.000000" transform="translate(0.500000 0.500000)" fill="white" fill-opacity="0"/>
		</clipPath>
	</defs>
	<rect id="simple-icons:ticktick" rx="0.000000" width="51.000000" height="51.000000" transform="translate(0.500000 0.500000)" fill="#FFFFFF" fill-opacity="0"/>
	<g clip-path="url(#clip95_2807)">
		<path id="Vector" d="M26 0C11.66 0 0 11.66 0 26C0 40.33 11.66 52 26 52C40.33 52 52 40.33 52 26L46.14 26C46.14 37.11 37.11 46.15 26 46.15C14.88 46.15 5.85 37.11 5.85 26C5.85 14.88 14.88 5.84 26 5.84L26 0ZM42.03 5.59L25.77 25.9L18.17 19.67L13.83 24.95L24.1 33.37C24.45 33.66 24.86 33.87 25.29 34C25.72 34.13 26.18 34.18 26.63 34.13C27.08 34.08 27.51 33.95 27.91 33.73C28.31 33.51 28.66 33.22 28.94 32.87L47.36 9.86L42.03 5.59Z" fill="#FDA924" fill-opacity="1.000000" fill-rule="nonzero"/>
		<path id="Vector" d="M26 0C11.66 0 0 11.66 0 26C0 40.33 11.66 52 26 52C40.33 52 52 40.33 52 26L46.14 26C46.14 37.11 37.11 46.15 26 46.15C14.88 46.15 5.85 37.11 5.85 26C5.85 14.88 14.88 5.84 26 5.84L26 0ZM42.03 5.59L25.77 25.9L18.17 19.67L13.83 24.95L24.1 33.37C24.45 33.66 24.86 33.87 25.29 34C25.72 34.13 26.18 34.18 26.63 34.13C27.08 34.08 27.51 33.95 27.91 33.73C28.31 33.51 28.66 33.22 28.94 32.87L47.36 9.86L42.03 5.59Z" fill="#FFFFFF" fill-opacity="0.500000" fill-rule="nonzero"/>
		<path id="Vector" d="M41.58 5.59L25.58 26.21L18.1 19.89L13.83 25.25L23.94 33.8C24.28 34.09 24.68 34.31 25.11 34.44C25.53 34.58 25.98 34.62 26.42 34.57C26.87 34.53 27.3 34.39 27.69 34.17C28.08 33.95 28.42 33.65 28.7 33.29L46.83 9.93L41.58 5.59Z" fill="#FDA924" fill-opacity="1.000000" fill-rule="nonzero"/>
	</g>
</svg>
