<svg width="256.179260" height="237.000122" viewBox="0 0 256.179 237" fill="none" xmlns="http://www.w3.org/2000/svg" xmlns:xlink="http://www.w3.org/1999/xlink">
	<desc>
			Created with Pixso.
	</desc>
	<defs>
		<radialGradient gradientTransform="translate(116.719 136.994) rotate(95.688) scale(69.1114 83.1061)" cx="0.000000" cy="0.000000" r="1.000000" id="paint_radial_2872_43140_0" gradientUnits="userSpaceOnUse">
			<stop stop-color="#FFC893"/>
			<stop offset="1.000000" stop-color="#FFE6CC"/>
		</radialGradient>
		<linearGradient x1="128.089630" y1="146.857864" x2="128.089630" y2="237.000076" id="paint_linear_2872_43141_0" gradientUnits="userSpaceOnUse">
			<stop stop-color="#474747"/>
			<stop offset="0.785912" stop-color="#ACACAC"/>
			<stop offset="1.000000" stop-color="#FFFFFF"/>
		</linearGradient>
		<linearGradient x1="128.089630" y1="146.857864" x2="128.089630" y2="237.000076" id="paint_linear_2872_43141_1" gradientUnits="userSpaceOnUse">
			<stop stop-color="#E20000"/>
			<stop offset="0.785912" stop-color="#DD4B4B"/>
			<stop offset="1.000000" stop-color="#FFFFFF"/>
		</linearGradient>
		<linearGradient x1="164.393005" y1="121.650833" x2="42.194134" y2="113.431206" id="paint_linear_2872_43143_0" gradientUnits="userSpaceOnUse">
			<stop stop-color="#FFD8B0"/>
			<stop offset="0.149791" stop-color="#FFE5CB"/>
			<stop offset="0.647121" stop-color="#FFE5CB"/>
			<stop offset="1.000000" stop-color="#FECDAA"/>
		</linearGradient>
		<linearGradient x1="156.173431" y1="133.432327" x2="139.734116" y2="124.938683" id="paint_linear_2872_43147_0" gradientUnits="userSpaceOnUse">
			<stop stop-color="#FFF0E4"/>
			<stop offset="1.000000" stop-color="#FFE6CC"/>
		</linearGradient>
		<radialGradient gradientTransform="translate(124.39 34.7965) rotate(59.5026) scale(75.0434 73.6202)" cx="0.000000" cy="0.000000" r="1.000000" id="paint_radial_2872_43149_0" gradientUnits="userSpaceOnUse">
			<stop stop-color="#FF7E7E"/>
			<stop offset="1.000000" stop-color="#FC191A"/>
		</radialGradient>
	</defs>
	<path id="Rectangle 22" d="M118.36 155.07L146.85 148.5L166.31 157.54L176.44 166.03L176.44 220.83L125.21 234.8L56.98 228.78L60.55 181.38L60.55 109.59L118.36 155.07Z" fill="url(#paint_radial_2872_43140_0)" fill-opacity="1.000000" fill-rule="nonzero"/>
	<path id="Rectangle 23" d="M171.24 195.9C176.85 181 177.32 170.1 166.58 158.09L156.72 155.62L167.68 154.53L176.72 158.09L184.66 156.72L203.29 164.39L237.82 172.33L250.42 181.65L256.17 188.23L256.17 237L0 237L0 232.34L18.63 218.91L58.9 188.23L67.4 181.65C67.4 181.65 71.98 198.33 77.81 207.13C93.26 230.46 122.59 238.11 146.31 223.57C158.12 216.33 166.35 208.86 171.24 195.9Z" fill="url(#paint_linear_2872_43141_0)" fill-opacity="1.000000" fill-rule="nonzero"/>
	<path id="Rectangle 23" d="M171.24 195.9C176.85 181 177.32 170.1 166.58 158.09L156.72 155.62L167.68 154.53L176.72 158.09L184.66 156.72L203.29 164.39L237.82 172.33L250.42 181.65L256.17 188.23L256.17 237L0 237L0 232.34L18.63 218.91L58.9 188.23L67.4 181.65C67.4 181.65 71.98 198.33 77.81 207.13C93.26 230.46 122.59 238.11 146.31 223.57C158.12 216.33 166.35 208.86 171.24 195.9Z" fill="url(#paint_linear_2872_43141_1)" fill-opacity="0" fill-rule="nonzero"/>
	<path id="Rectangle 24" d="M40.27 87.4C40.27 87.4 31.98 104.94 29.59 116.99C27.9 125.49 28.55 132.13 29.22 138.97C29.79 144.71 30.36 150.58 29.59 157.81C27.73 175.05 20.82 183.8 19.72 201.1C19.56 203.58 18.79 205.86 18.06 208.04C16.76 211.86 15.58 215.33 18.08 218.91C20.67 222.64 24.1 222.67 28.32 222.7C29.16 222.7 30.04 222.71 30.96 222.75C45.75 216.17 52.22 198.53 58.08 191.79C64.93 181.1 73.42 180.83 74.25 159.73C74.54 152.12 72.85 145.89 71.2 139.79C69.41 133.21 67.67 126.78 68.49 118.91C69.46 109.71 72.33 102.19 72.33 102.19L76.71 92.06L89.59 88.77L71.51 79.45L40.27 87.4ZM166.31 139.46L161.92 127.67L151.24 154.8L157.26 156.17L166.31 154.8L166.31 139.46Z" fill="#FDA924" fill-opacity="1.000000" fill-rule="evenodd"/>
	<path id="Rectangle 25" d="M166.58 121.1C159.46 138.36 154.25 146.03 151.51 164.11C151.51 164.11 146.58 180.13 124.66 173.16C98.35 164.78 84.83 157.69 71.78 123.56C71.78 123.56 63.29 123.29 58.35 121.37C41.44 112.65 40.11 100.25 43.29 92.6C46.57 86.85 53.7 89.86 53.7 89.86C60.93 93.84 64.87 96.63 71.78 102.19C70.46 97.22 76.07 95.64 76.16 92.6C76.27 89.05 88.01 91.61 88.77 87.67L168.22 86.03C168.22 86.03 171.24 111.23 166.58 121.1Z" fill="url(#paint_linear_2872_43143_0)" fill-opacity="1.000000" fill-rule="evenodd"/>
	<path id="Rectangle 26" d="M120.28 147.67L121.92 145.76C121.92 145.76 125.88 146.91 128.5 147.13C130.31 147.28 133.15 147.13 133.15 147.13L141.1 145.76C141.1 145.76 146.68 146.64 149.32 145.76C151.09 145.16 153.15 143.29 153.15 143.29L151.24 146.58L149.05 149.32L140.28 153.7L128.77 150.96L121.92 146.58L120.28 147.67Z" fill="#FF0D00" fill-opacity="1.000000" fill-rule="nonzero"/>
	<path id="Rectangle 27" d="M120.28 147.67L121.37 145.48L130.96 148.77C130.96 148.77 137.16 149.79 141.1 149.32C144.63 148.9 147 148.97 149.87 146.85C151.39 145.73 153.15 143.29 153.15 143.29L151.51 146.31L149.05 149.32C149.05 149.32 144.06 153.13 140.28 153.7C135.71 154.39 128.77 150.96 128.77 150.96L121.92 146.58L120.28 147.67Z" fill="#FF4137" fill-opacity="1.000000" fill-rule="nonzero"/>
	<path id="Rectangle 28" d="M210.69 77.53C210.69 77.53 214.41 79.73 214.25 84.66C214.12 89.05 213.27 90.74 209.6 93.15C202.9 97.7 186.57 86.46 185.76 86.85L198.36 76.99L210.69 77.53Z" fill="#262626" fill-opacity="1.000000" fill-rule="nonzero"/>
	<path id="Rectangle 28" d="M210.69 77.53C210.69 77.53 214.41 79.73 214.25 84.66C214.12 89.05 213.27 90.74 209.6 93.15C202.9 97.7 186.57 86.46 185.76 86.85L198.36 76.99L210.69 77.53Z" fill="#881819" fill-opacity="1.000000" fill-rule="nonzero"/>
	<path id="Rectangle 29" d="M141.65 122.19L143.57 103.56L149.87 102.19L152.33 115.34C153.7 120.28 157.81 122.74 157.54 129.87C157.54 129.87 156.99 135.07 150.96 134.8C142.74 130.41 136.17 140.28 132.33 132.06L141.65 122.19Z" fill="url(#paint_linear_2872_43147_0)" fill-opacity="1.000000" fill-rule="nonzero"/>
	<path id="Rectangle 30" d="M70.96 80C100.57 76.86 115.82 67.46 145.21 65.75C158.09 64.38 164.91 63.88 177.54 65.75C192.31 69.82 202.3 71.99 211.24 77.81C192.06 74.25 168.22 112.88 135.35 108.22C110.23 103.96 95.91 97.58 70.96 80Z" fill="#FC191A" fill-opacity="1.000000" fill-rule="nonzero"/>
	<path id="Rectangle 31" d="M176.43 66.24C161.63 -13.49 96.42 1.03 96.42 1.03C61.88 9.56 35.32 25.14 39.98 88.16L69.84 80.21C69.84 80.21 95.03 78.11 110.94 75.28C128.06 72.24 136.9 66.24 154.23 64.87C162.98 64.18 176.43 66.24 176.43 66.24Z" fill="url(#paint_radial_2872_43149_0)" fill-opacity="1.000000" fill-rule="nonzero"/>
	<path id="Vector" d="M124.53 19.31C125.12 19.46 125.71 19.61 126.3 19.76C130.9 20.94 134.15 23.77 136.3 27.92C137.56 30.37 138.21 32.98 138.45 35.74C132.06 35.38 127.29 37.97 123.97 43.46C121.86 38.63 118.09 36.23 112.88 35.86C115.37 34.08 119.22 32.3 122.82 33.17C122.75 31.37 120.81 28.03 117.01 26.4C119.17 25.76 121.24 25.65 123.33 26.05C125.45 26.45 127.28 27.41 128.69 29.14C128.74 27.63 128.43 26.23 127.94 24.85C127.17 22.72 125.8 20.99 124.25 19.38C124.35 19.36 124.44 19.34 124.53 19.31L124.53 19.31Z" fill="#FDA924" fill-opacity="1.000000" fill-rule="nonzero"/>
	<path id="Vector" d="M139.26 45.12C138.06 44.33 136.87 44.04 135.57 44.24C132.44 44.74 130.55 48.04 131.75 50.95C132.38 52.48 133.74 53.09 135.42 52.6C136.66 52.25 137.71 51.59 138.64 50.71C138.91 50.45 139.19 50.19 139.55 49.86C139.65 51.54 139.75 53.12 139.85 54.71C139.89 55.41 139.97 56.12 139.97 56.82C139.98 57.07 139.91 57.45 139.75 57.55C137.43 58.95 135.02 60.04 132.21 59.99C127.92 59.9 124.75 57.1 124.19 52.88C123.73 49.48 124.28 46.3 126.1 43.37C128.09 40.16 131.05 38.33 134.71 37.62C135.88 37.39 137.11 37.44 138.31 37.42C138.48 37.42 138.8 37.72 138.82 37.89C138.99 40.24 139.11 42.59 139.26 45.12L139.26 45.12Z" fill="#FFFFFF" fill-opacity="1.000000" fill-rule="nonzero"/>
	<path id="Vector" d="M144.47 46.97C146.21 47.84 147.9 47.83 152.23 47.09C148.74 50.09 145.25 53.09 141.61 56.21C141.22 49.97 140.85 43.9 140.47 37.74C145.5 38.43 150.48 39.12 155.48 39.81C154.75 41.09 149.19 44.7 144.47 46.98L144.47 46.97Z" fill="#FDA924" fill-opacity="1.000000" fill-rule="nonzero"/>
	<path id="Vector" d="M133.29 49.63C132.99 48.29 133.69 46.79 134.91 46.14C136.03 45.55 137.25 46.12 137.56 47.37C137.88 48.64 137.27 50.12 136.13 50.81C134.91 51.57 133.6 51.02 133.29 49.63L133.29 49.63Z" fill="#FDA924" fill-opacity="1.000000" fill-rule="nonzero"/>
</svg>
