<svg width="108.000008" height="108.000000" viewBox="0 0 108 108" fill="none" xmlns="http://www.w3.org/2000/svg" xmlns:xlink="http://www.w3.org/1999/xlink">
	<desc>
			Created with Pixso.
	</desc>
	<defs>
		<clipPath id="clip2872_43059">
			<rect id="Frame 19122634" rx="0.000000" width="107.000000" height="107.000000" transform="translate(0.500000 0.500000)" fill="white" fill-opacity="0"/>
		</clipPath>
	</defs>
	<rect id="Frame 19122634" rx="0.000000" width="107.000000" height="107.000000" transform="translate(0.500000 0.500000)" fill="#FFFFFF" fill-opacity="1.000000"/>
	<g clip-path="url(#clip2872_43059)">
		<path id="Vector" d="M58.42 68.26L49.69 74.96C44.38 79.07 36.66 78 32.68 72.6C28.94 67.51 29.88 60.41 34.83 56.46L48.87 45.25C46.91 44.43 44.8 44.01 42.66 44.01C39.48 44 36.39 44.93 33.75 46.66L21.6 54.66L8.1 54.66C3.62 54.66 0 58.25 0 62.66L0 84C0 88.42 3.62 92 8.1 92L26.35 92L41.78 105.9C45.09 108.89 50.2 108.65 53.22 105.38C54.15 104.37 54.77 103.18 55.09 101.95L57.96 104.55C61.25 107.53 66.38 107.32 69.4 104.07C70.16 103.25 70.72 102.3 71.07 101.32C74.35 103.48 78.8 103.03 81.55 100.07C84.57 96.82 84.35 91.75 81.06 88.77L58.42 68.26Z" fill="#E62A2B" fill-opacity="1.000000" fill-rule="nonzero"/>
		<path id="Vector" d="M54.57 47.53L38.23 60.6C35.52 62.76 34.99 66.66 37.05 69.45C39.23 72.41 43.47 73 46.38 70.75L63.14 57.88C64.32 56.98 66.01 57.18 66.94 58.35C67.87 59.51 67.65 61.18 66.47 62.1L62.94 64.8L92.84 92L99.9 92C104.37 92 108 88.42 108 84L108 62.66C108 58.25 104.37 54.66 99.9 54.66L86.28 54.66L85.62 54.25L73.37 46.5C70.79 44.86 67.77 44 64.69 44C61.02 44 57.44 45.25 54.57 47.53Z" fill="#FDA924" fill-opacity="1.000000" fill-rule="nonzero"/>
		<path id="Intersect" d="M50.41 4.15C51.68 4.05 52.96 4 54.25 4C55.31 4 56.35 4.03 57.38 4.1L57.38 19.9L50.41 19.93L50.41 4.15ZM75.4 8.99L69.47 24.07L63.16 21.01L68.94 6.3L75.4 8.99ZM32.48 9.21C34.55 8.16 36.71 7.25 38.93 6.5L44.67 21.11L38.37 24.18L32.48 9.21ZM90.86 21.21L80.13 32.24L74.74 27.65L85.93 16.15L90.86 21.21ZM17.13 21.41C18.66 19.61 20.3 17.91 22.06 16.35L33.16 27.75L27.76 32.34L17.13 21.41ZM100 37.35L85.29 43.95L83.3 37.02L97.21 30.78L100 37.35ZM8 37.43C8.79 35.17 9.73 32.98 10.81 30.88L24.6 37.07L22.61 44L8 37.43Z" fill="#FFF0DC" fill-opacity="1.000000" fill-rule="evenodd"/>
	</g>
</svg>
