<svg width="13.596680" height="12.611572" viewBox="0 0 13.5967 12.6116" fill="none" xmlns="http://www.w3.org/2000/svg" xmlns:xlink="http://www.w3.org/1999/xlink">
	<desc>
			Created with Pixso.
	</desc>
	<defs/>
	<path id="Vector" d="M13.3 7.72C11.64 11.77 4.29 12.57 3.98 12.6C3.9 12.61 3.82 12.6 3.74 12.57C3.66 12.54 3.6 12.49 3.54 12.42C3.34 12.18 -1.31 6.44 0.35 2.4C0.75 1.45 1.5 0.69 2.45 0.29C3.39 -0.1 4.46 -0.1 5.41 0.28C6.6 0.78 7.44 1.72 7.73 2.85C8.74 2.25 10 2.17 11.19 2.66C12.14 3.05 12.9 3.81 13.29 4.75C13.69 5.7 13.69 6.77 13.3 7.72Z" fill="#E62A2B" fill-opacity="0.750000" fill-rule="nonzero"/>
</svg>
