<svg width="200" height="59" viewBox="0 0 200 59" fill="none" xmlns="http://www.w3.org/2000/svg">
<path d="M0.00400585 57.5864C0.402588 55.8106 0.841228 54.0429 1.19575 52.2591C2.68392 44.7649 4.14605 37.2666 5.62021 29.7704C5.65826 29.5777 5.74038 29.3931 5.82651 29.1223C6.11693 29.1223 6.40735 29.1203 6.69778 29.1223C11.5008 29.1744 16.3058 29.1805 21.1048 29.3149C22.3126 29.349 23.5504 29.6781 24.7041 30.0774C27.7185 31.1227 29.0464 33.1794 29.1546 36.3597C29.4149 43.9442 23.7527 48.7398 17.5997 49.5323C16.0514 49.731 14.4731 49.7129 12.9088 49.745C12.352 49.757 12.1297 49.8955 11.9835 50.4894C11.621 51.9762 11.2024 53.459 10.6636 54.8897C9.99459 56.6654 8.68067 57.9094 6.77189 58.072C4.52861 58.2626 2.2593 58.1602 0 58.1843C0 57.9837 0 57.783 0 57.5824L0.00400585 57.5864ZM13.72 42.1264C14.8337 42.1264 15.8031 42.2046 16.7545 42.1083C18.3408 41.9498 19.5325 39.6664 18.7674 38.2518C18.5751 37.8967 18.1064 37.5114 17.7299 37.4713C16.7224 37.3629 15.6949 37.4352 14.6254 37.4352C14.3289 38.9721 14.0385 40.469 13.718 42.1284L13.72 42.1264Z" fill="url(#paint0_linear_2519_2052)"/>
<path d="M165.045 0C165.792 0.411331 166.539 0.824669 167.286 1.236C173.143 4.46244 176.576 9.47868 178.048 15.9195C178.913 19.7098 178.893 23.5282 178.26 27.3866C169.704 24.6578 162.311 26.5439 155.9 32.9065C154.708 25.5427 150.41 20.9317 143.457 18.6102C147.457 17.0412 153.31 15.9476 157.915 18.3955C158.429 15.9095 156.961 10.6525 152.354 7.08894C155.525 6.96053 158.375 7.53639 161.069 8.80851C163.821 10.1087 165.974 12.0691 167.286 14.9303C167.873 12.8797 167.941 10.8471 167.749 8.78845C167.45 5.59411 166.187 2.7489 164.642 0C164.777 0 164.909 0 165.043 0H165.045Z" fill="url(#paint1_linear_2519_2052)"/>
<path d="M124.131 58.4171C124.995 54.065 125.794 50.044 126.587 46.021C127.644 40.6556 128.7 35.2902 129.745 29.9229C129.832 29.4834 129.84 29.1002 130.485 29.1102C135.484 29.1925 140.485 29.1885 145.482 29.3289C147.279 29.3791 149.014 29.8928 150.57 30.9121C152.236 32.0036 153.063 33.5646 153.248 35.4869C153.965 42.9229 149.078 48.0756 142.732 49.3437C140.89 49.7109 138.961 49.6567 137.068 49.749C136.525 49.7751 136.313 49.8955 136.149 50.4894C135.67 52.213 135.125 53.9286 134.44 55.5779C133.853 56.9905 132.644 57.8813 131.133 58.0318C128.864 58.2606 126.577 58.2927 124.129 58.4171H124.131ZM137.859 42.1384C138.091 42.1384 138.311 42.1352 138.522 42.1317C138.552 42.1312 138.583 42.1307 138.613 42.1302C138.837 42.1265 139.051 42.123 139.261 42.1231C139.336 42.1231 139.411 42.1236 139.486 42.1248C139.653 42.1274 139.818 42.1333 139.982 42.1444C140.096 42.1521 140.206 42.1562 140.312 42.1567C140.349 42.1568 140.386 42.1565 140.423 42.1558C142.54 42.1152 143.055 40.6085 143.207 38.7715C143.277 37.9207 142.792 37.383 141.899 37.3609C141.812 37.3588 141.724 37.3571 141.636 37.3556C141.205 37.3481 140.773 37.3476 140.333 37.3491C140.156 37.3497 139.978 37.3506 139.798 37.3516C139.483 37.3532 139.163 37.3549 138.835 37.3549C138.693 38.0511 138.553 38.7373 138.411 39.4339C138.234 40.3054 138.053 41.193 137.861 42.1364L137.859 42.1384Z" fill="url(#paint2_linear_2519_2052)"/>
<path d="M28.7079 58.2826C30.4324 55.8829 32.0388 53.6858 33.5891 51.4505C33.8314 51.0994 33.9736 50.5396 33.8955 50.1262C32.6076 43.3804 31.2757 36.6426 29.9558 29.9028C29.9117 29.6801 29.8997 29.4493 29.8656 29.1784H41.6568C42.0855 32.6838 42.5081 36.147 42.9667 39.8951C44.1585 38.0672 45.206 36.4781 46.2355 34.8789C47.3712 33.1132 48.4828 31.3314 49.6325 29.5737C49.7687 29.367 50.0771 29.1463 50.3075 29.1463C54.0369 29.1202 57.7664 29.1283 61.7221 29.1283C60.7207 30.5368 59.8354 31.8049 58.9281 33.057C53.1216 41.0669 47.2951 49.0628 41.5186 57.0948C40.8877 57.9736 40.2468 58.3408 39.1452 58.3168C35.7462 58.2385 32.3432 58.2887 28.7079 58.2887V58.2826Z" fill="url(#paint3_linear_2519_2052)"/>
<path d="M114.131 50.373H123.454C122.946 53.0638 122.459 55.6321 121.966 58.2365H102.307C102.608 56.5932 102.88 54.998 103.195 53.4129C104.709 45.7541 106.259 38.1013 107.727 30.4325C107.934 29.353 108.326 29.0861 109.39 29.0962C115.026 29.1564 120.664 29.1243 126.302 29.1243C126.659 29.1243 127.015 29.1243 127.514 29.1243C126.989 31.8631 126.491 34.4635 125.982 37.1141H116.74C116.552 38.0391 116.374 38.9119 116.174 39.8991H125.451C125.049 42.0361 124.598 44.0426 124.318 46.0731C124.171 47.1225 123.793 47.4195 122.743 47.3794C120.378 47.2871 118.006 47.3814 115.639 47.3332C114.88 47.3172 114.559 47.5439 114.503 48.3084C114.457 48.9645 114.273 49.6126 114.131 50.371V50.373Z" fill="url(#paint4_linear_2519_2052)"/>
<path d="M78.751 40.5533C76.9183 38.4886 74.7832 37.7903 72.2555 38.1053C68.4459 38.5789 65.6018 42.8627 66.6813 46.5667C67.2682 48.5792 68.7343 49.5263 71.0217 49.44C72.9044 49.3698 74.5929 48.7117 76.2213 47.8408C76.6018 47.6382 76.9744 47.4215 77.4991 47.1285C76.8342 50.5897 76.2032 53.9125 75.5443 57.2292C75.5042 57.4339 75.2639 57.6987 75.0636 57.761C71.2861 58.9147 67.4745 59.5768 63.5848 58.3208C58.205 56.5852 55.2206 52.4036 55.519 46.7473C55.8015 41.396 57.8184 36.7449 61.8603 33.1633C67.0038 28.6046 72.9865 27.6475 79.5061 29.4212C79.8866 29.5256 80.2572 29.666 80.7859 29.8386C80.117 33.36 79.45 36.8693 78.749 40.5533H78.751Z" fill="url(#paint5_linear_2519_2052)"/>
<path d="M176.107 40.5312C174.743 39.0303 173.239 38.2117 171.392 38.0371C166.964 37.6157 163.25 41.4823 163.869 45.8965C164.194 48.21 165.838 49.5223 168.292 49.442C170.096 49.3838 171.757 48.8501 173.319 47.9713C173.782 47.7104 174.246 47.4556 174.851 47.1225C174.413 49.4601 173.998 51.6672 173.583 53.8744C173.399 54.8576 173.249 55.8488 173.017 56.8199C172.934 57.161 172.714 57.6586 172.452 57.7389C168.816 58.8425 165.163 59.4946 161.362 58.4351C155.561 56.8199 152.222 51.8679 152.923 45.8825C153.488 41.0729 155.329 36.9075 158.824 33.5225C162.647 29.8185 167.3 28.3457 172.52 28.6568C174.192 28.7571 175.847 29.2527 177.491 29.6419C177.727 29.6981 178.058 30.2238 178.014 30.4706C177.429 33.7472 176.786 37.0118 176.109 40.5292L176.107 40.5312Z" fill="url(#paint6_linear_2519_2052)"/>
<path d="M87.4497 38.7314H81.6172C82.2541 35.4748 82.869 32.3226 83.4859 29.1684H105.602C104.981 32.3668 104.372 35.5009 103.745 38.7233C102.117 38.7233 100.519 38.7635 98.9264 38.7073C98.1633 38.6812 97.8388 38.8678 97.6846 39.6844C96.545 45.6518 95.3492 51.607 94.1434 57.5623C94.0894 57.8312 93.7669 58.2525 93.5646 58.2545C90.2998 58.2987 87.0331 58.2846 83.6141 58.2846C84.8979 51.7415 86.1598 45.3127 87.4517 38.7294L87.4497 38.7314Z" fill="url(#paint7_linear_2519_2052)"/>
<path d="M182.549 44.8953C184.606 46.6851 186.915 47.271 193.06 47.7726C187.271 50.66 181.483 53.5453 175.452 56.553C177.093 47.8649 178.689 39.4055 180.309 30.8298C186.911 33.5446 193.438 36.2273 200 38.926C198.564 40.4329 189.745 43.4306 182.547 44.8953H182.549Z" fill="url(#paint8_linear_2519_2052)"/>
<path d="M166.425 44.6164C166.481 42.6862 167.957 40.8663 169.84 40.4068C171.561 39.9874 173.029 41.1953 173.021 43.0232C173.013 44.8672 171.661 46.6851 169.882 47.2389C167.951 47.8408 166.365 46.6369 166.423 44.6144L166.425 44.6164Z" fill="url(#paint9_linear_2519_2052)"/>
<defs>
<linearGradient id="paint0_linear_2519_2052" x1="-9.5" y1="17" x2="257.491" y2="39.6046" gradientUnits="userSpaceOnUse">
<stop stop-color="white" stop-opacity="0.9"/>
<stop offset="1" stop-color="white" stop-opacity="0.7"/>
</linearGradient>
<linearGradient id="paint1_linear_2519_2052" x1="-9.5" y1="17" x2="257.491" y2="39.6046" gradientUnits="userSpaceOnUse">
<stop stop-color="white" stop-opacity="0.9"/>
<stop offset="1" stop-color="white" stop-opacity="0.7"/>
</linearGradient>
<linearGradient id="paint2_linear_2519_2052" x1="-9.5" y1="17" x2="257.491" y2="39.6046" gradientUnits="userSpaceOnUse">
<stop stop-color="white" stop-opacity="0.9"/>
<stop offset="1" stop-color="white" stop-opacity="0.7"/>
</linearGradient>
<linearGradient id="paint3_linear_2519_2052" x1="-9.5" y1="17" x2="257.491" y2="39.6046" gradientUnits="userSpaceOnUse">
<stop stop-color="white" stop-opacity="0.9"/>
<stop offset="1" stop-color="white" stop-opacity="0.7"/>
</linearGradient>
<linearGradient id="paint4_linear_2519_2052" x1="-9.5" y1="17" x2="257.491" y2="39.6046" gradientUnits="userSpaceOnUse">
<stop stop-color="white" stop-opacity="0.9"/>
<stop offset="1" stop-color="white" stop-opacity="0.7"/>
</linearGradient>
<linearGradient id="paint5_linear_2519_2052" x1="-9.5" y1="17" x2="257.491" y2="39.6046" gradientUnits="userSpaceOnUse">
<stop stop-color="white" stop-opacity="0.9"/>
<stop offset="1" stop-color="white" stop-opacity="0.7"/>
</linearGradient>
<linearGradient id="paint6_linear_2519_2052" x1="-9.5" y1="17" x2="257.491" y2="39.6046" gradientUnits="userSpaceOnUse">
<stop stop-color="white" stop-opacity="0.9"/>
<stop offset="1" stop-color="white" stop-opacity="0.7"/>
</linearGradient>
<linearGradient id="paint7_linear_2519_2052" x1="-9.5" y1="17" x2="257.491" y2="39.6046" gradientUnits="userSpaceOnUse">
<stop stop-color="white" stop-opacity="0.9"/>
<stop offset="1" stop-color="white" stop-opacity="0.7"/>
</linearGradient>
<linearGradient id="paint8_linear_2519_2052" x1="-9.5" y1="17" x2="257.491" y2="39.6046" gradientUnits="userSpaceOnUse">
<stop stop-color="white" stop-opacity="0.9"/>
<stop offset="1" stop-color="white" stop-opacity="0.7"/>
</linearGradient>
<linearGradient id="paint9_linear_2519_2052" x1="-9.5" y1="17" x2="257.491" y2="39.6046" gradientUnits="userSpaceOnUse">
<stop stop-color="white" stop-opacity="0.9"/>
<stop offset="1" stop-color="white" stop-opacity="0.7"/>
</linearGradient>
</defs>
</svg>
