<svg width="116" height="35" viewBox="0 0 116 35" fill="none" xmlns="http://www.w3.org/2000/svg">
<path d="M0.00232339 34.1614C0.233501 33.108 0.487912 32.0594 0.693533 31.0012C1.55667 26.5554 2.40471 22.1073 3.25972 17.6604C3.28179 17.5461 3.32942 17.4366 3.37937 17.2759C3.54782 17.2759 3.71627 17.2747 3.88471 17.2759C6.67046 17.3069 9.45737 17.3104 12.2408 17.3902C12.9413 17.4104 13.6592 17.6056 14.3284 17.8425C16.0767 18.4626 16.8469 19.6827 16.9096 21.5693C17.0607 26.0686 13.7766 28.9134 10.2078 29.3836C9.30983 29.5014 8.39442 29.4907 7.48713 29.5098C7.16418 29.5169 7.03523 29.599 6.95043 29.9514C6.74016 30.8334 6.49737 31.713 6.18487 32.5617C5.79686 33.6151 5.03479 34.3531 3.92769 34.4495C2.6266 34.5625 1.31039 34.5018 0 34.5161C0 34.3971 0 34.2781 0 34.159L0.00232339 34.1614ZM7.95762 24.9902C8.60352 24.9902 9.16578 25.0366 9.71759 24.9795C10.6377 24.8855 11.3289 23.5309 10.8851 22.6918C10.7736 22.4811 10.5017 22.2525 10.2833 22.2287C9.699 22.1645 9.10305 22.2073 8.4827 22.2073C8.31077 23.1191 8.14233 24.007 7.95646 24.9914L7.95762 24.9902Z" fill="#E62A2B"/>
<path d="M95.7261 0C96.1594 0.24401 96.5927 0.48921 97.026 0.733221C100.423 2.64721 102.414 5.62294 103.268 9.44379C103.77 11.6922 103.758 13.9574 103.391 16.2463C98.4282 14.6275 94.1404 15.7464 90.4218 19.5208C89.7306 15.1524 87.2376 12.4171 83.2053 11.04C85.5252 10.1092 88.9197 9.46045 91.5905 10.9126C91.889 9.43783 91.0375 6.31927 88.3656 4.20531C90.2045 4.12913 91.8576 4.47074 93.4201 5.22539C95.0163 5.9967 96.2651 7.15961 97.026 8.85697C97.3664 7.64049 97.4059 6.43472 97.2944 5.21348C97.1213 3.31854 96.3883 1.6307 95.4926 0C95.5704 0 95.6471 0 95.7249 0L95.7261 0Z" fill="#FDA924"/>
<path d="M71.9961 34.6542C72.4968 32.0724 72.9603 29.6871 73.4203 27.3006C74.0337 24.1177 74.6459 20.9349 75.2523 17.7508C75.3023 17.4902 75.3069 17.2628 75.681 17.2688C78.5806 17.3176 81.4813 17.3152 84.3798 17.3985C85.4218 17.4283 86.4278 17.733 87.3305 18.3376C88.297 18.9852 88.7768 19.9112 88.8837 21.0515C89.2996 25.4627 86.465 28.5194 82.7848 29.2717C81.716 29.4895 80.5973 29.4574 79.4995 29.5121C79.1847 29.5276 79.0615 29.599 78.9663 29.9513C78.6886 30.9738 78.3726 31.9915 77.9753 32.9699C77.635 33.8079 76.9333 34.3364 76.0574 34.4256C74.7412 34.5613 73.4145 34.5804 71.9949 34.6542H71.9961ZM79.9584 24.9973C80.4265 24.9973 80.8099 24.9747 81.1898 25.0009C82.6326 25.1009 82.966 24.1617 83.0601 23C83.1007 22.4953 82.8196 22.1763 82.3015 22.1632C81.7253 22.149 81.1479 22.1597 80.5241 22.1597C80.3394 23.0893 80.1593 23.9892 79.9595 24.9961L79.9584 24.9973Z" fill="#E62A2B"/>
<path d="M16.6506 34.5745C17.6508 33.1509 18.5825 31.8475 19.4816 30.5215C19.6222 30.3132 19.7047 29.9811 19.6594 29.7359C18.9124 25.7342 18.1399 21.7371 17.3743 17.739C17.3488 17.6068 17.3418 17.4699 17.322 17.3093H24.1609C24.4095 19.3887 24.6547 21.4431 24.9207 23.6666C25.6119 22.5823 26.2195 21.6395 26.8166 20.6909C27.4753 19.6434 28.12 18.5864 28.7868 17.5437C28.8658 17.4211 29.0447 17.2902 29.1783 17.2902C31.3414 17.2747 33.5045 17.2795 35.7988 17.2795C35.218 18.1151 34.7045 18.8674 34.1782 19.6101C30.8105 24.3617 27.4311 29.1051 24.0808 33.8698C23.7148 34.3912 23.3431 34.609 22.7042 34.5947C20.7328 34.5483 18.7591 34.578 16.6506 34.578V34.5745Z" fill="#E62A2B"/>
<path d="M66.1957 29.8823H71.6034C71.3084 31.4785 71.0261 33.0021 70.7403 34.5471H59.3383C59.5125 33.5722 59.6705 32.6259 59.8529 31.6856C60.7311 27.1423 61.6303 22.6025 62.4818 18.0532C62.6015 17.4128 62.8292 17.2545 63.446 17.2604C66.715 17.2962 69.9852 17.2771 73.2554 17.2771C73.4622 17.2771 73.6689 17.2771 73.9582 17.2771C73.6538 18.9019 73.3646 20.4445 73.0695 22.0169H67.7094C67.6002 22.5656 67.4968 23.0834 67.3807 23.669H72.7617C72.5282 24.9366 72.2668 26.1269 72.1041 27.3315C72.0193 27.954 71.7998 28.1302 71.191 28.1064C69.8191 28.0516 68.4436 28.1076 67.0705 28.079C66.6302 28.0695 66.4443 28.204 66.4118 28.6575C66.3851 29.0467 66.2782 29.4312 66.1957 29.8811V29.8823Z" fill="#E62A2B"/>
<path d="M45.6756 24.057C44.6126 22.8322 43.3743 22.418 41.9082 22.6049C39.6986 22.8858 38.049 25.4271 38.6752 27.6243C39.0156 28.8182 39.8659 29.38 41.1926 29.3288C42.2846 29.2872 43.2639 28.8968 44.2084 28.3802C44.4291 28.26 44.6451 28.1314 44.9495 27.9576C44.5638 30.0109 44.1979 31.982 43.8157 33.9496C43.7925 34.071 43.6531 34.2281 43.5369 34.265C41.3459 34.9494 39.1352 35.3422 36.8792 34.5971C33.7589 33.5675 32.028 31.0869 32.2011 27.7315C32.3649 24.557 33.5347 21.7979 35.879 19.6732C38.8622 16.9688 42.3322 16.4011 46.1135 17.4533C46.3343 17.5152 46.5492 17.5985 46.8559 17.7009C46.4679 19.7898 46.081 21.8717 45.6744 24.057H45.6756Z" fill="#E62A2B"/>
<path d="M102.142 24.0439C101.351 23.1536 100.479 22.668 99.4075 22.5644C96.839 22.3144 94.6852 24.6081 95.0442 27.2268C95.2324 28.5992 96.1861 29.3776 97.6092 29.33C98.6559 29.2955 99.6189 28.9789 100.525 28.4575C100.793 28.3028 101.063 28.1516 101.414 27.954C101.159 29.3407 100.919 30.6501 100.678 31.9594C100.572 32.5426 100.484 33.1306 100.35 33.7067C100.302 33.9091 100.174 34.2043 100.022 34.2519C97.9136 34.9066 95.7946 35.2934 93.5897 34.6649C90.2255 33.7067 88.2889 30.7691 88.6955 27.2184C89.0231 24.3653 90.0907 21.8943 92.1179 19.8862C94.3355 17.689 97.0342 16.8153 100.062 16.9998C101.032 17.0593 101.991 17.3533 102.945 17.5842C103.082 17.6175 103.274 17.9294 103.248 18.0758C102.909 20.0196 102.536 21.9562 102.143 24.0427L102.142 24.0439Z" fill="#E62A2B"/>
<path d="M50.7208 22.9762H47.338C47.7074 21.0444 48.064 19.1744 48.4218 17.3033H61.2493C60.8891 19.2006 60.536 21.0598 60.1724 22.9715C59.2279 22.9715 58.3009 22.9953 57.3773 22.9619C56.9347 22.9465 56.7465 23.0572 56.6571 23.5416C55.9961 27.0815 55.3025 30.6143 54.6032 34.1471C54.5718 34.3066 54.3848 34.5566 54.2675 34.5578C52.3739 34.584 50.4792 34.5756 48.4962 34.5756C49.2408 30.6941 49.9727 26.8804 50.722 22.975L50.7208 22.9762Z" fill="#E62A2B"/>
<path d="M105.878 26.6328C107.071 27.6945 108.411 28.0421 111.975 28.3397C108.617 30.0525 105.26 31.7642 101.762 33.5484C102.714 28.3944 103.64 23.3762 104.579 18.2888C108.408 19.8993 112.194 21.4907 116 23.0917C115.167 23.9856 110.052 25.7639 105.877 26.6328H105.878Z" fill="#FDA924"/>
<path d="M96.5265 26.4674C96.559 25.3223 97.4152 24.2427 98.5072 23.9701C99.5051 23.7214 100.357 24.4379 100.352 25.5223C100.347 26.6161 99.5632 27.6946 98.5316 28.0231C97.4117 28.3802 96.4916 27.666 96.5253 26.4662L96.5265 26.4674Z" fill="#FDA924"/>
</svg>
