<svg width="47.413574" height="60.626465" viewBox="0 0 47.4136 60.6265" fill="none" xmlns="http://www.w3.org/2000/svg" xmlns:xlink="http://www.w3.org/1999/xlink">
	<desc>
			Created with Pixso.
	</desc>
	<defs>
		<clipPath id="clip956_15420">
			<rect id="Group 66" width="47.413792" height="60.626453" transform=" rotate(-0.000017)" fill="white" fill-opacity="0"/>
		</clipPath>
		<linearGradient x1="22.263203" y1="45.389225" x2="23.990929" y2="61.107941" id="paint_linear_956_15400_0" gradientUnits="userSpaceOnUse">
			<stop stop-color="#D7D7D7"/>
			<stop offset="1.000000" stop-color="#F4F4F4"/>
		</linearGradient>
		<linearGradient x1="27.476692" y1="1.654733" x2="30.299025" y2="25.582399" id="paint_linear_956_15401_0" gradientUnits="userSpaceOnUse">
			<stop stop-color="#FE2934"/>
			<stop offset="1.000000" stop-color="#98191F"/>
		</linearGradient>
		<linearGradient x1="27.559891" y1="23.248718" x2="29.276722" y2="37.803856" id="paint_linear_956_15404_0" gradientUnits="userSpaceOnUse">
			<stop stop-color="#F8CC02"/>
			<stop offset="1.000000" stop-color="#DD9F00"/>
		</linearGradient>
	</defs>
	<g clip-path="url(#clip956_15420)">
		<path id="path" d="M32.36 49.6C31.94 49.51 31.56 49.25 31.1 49.03L29.87 49.16C29.01 50.03 28.04 50.83 26.98 51.54C25.73 52.39 24.31 52.92 22.81 53.2C21.66 53.4 20.48 53.52 19.31 53.57C18.02 53.62 17.2 53.02 16.77 51.87C16.45 51 16.35 50.1 16.41 49.18C16.48 48.05 16.66 46.95 17.05 45.9L16.21 45.99C16.21 45.99 13.15 46.66 12.33 46.76C10.01 47.07 8.04 47.98 6.69 49.85C6.29 50.41 6 51.04 5.73 51.68C5.25 52.83 5.25 54.53 5.25 54.83C8.82 58.44 13.6 60.39 18.75 60.83C26.3 61.49 35.9 61.34 40.75 55.83C40.92 55.64 40.55 53.76 39.25 52.33C37.96 50.91 36.17 50.2 35.57 50.12C34.49 49.99 33.42 49.82 32.36 49.6Z" fill="url(#paint_linear_956_15400_0)" fill-opacity="1.000000" fill-rule="nonzero"/>
		<path id="path" d="M18.89 3.82C17.44 5.21 16.94 6.7 16.36 8.52C16.26 8.85 16.22 9.14 16.17 9.43C16.15 9.62 16.12 9.8 16.08 10.01C16.14 10.07 16.07 10.38 16.04 10.56C16.02 10.61 16.02 10.65 16.01 10.66C15.92 11.69 15.81 12.72 15.7 13.74L15.66 14.17C15.74 15.7 15.9 17.22 16.71 18.59C16.92 18.88 17.14 19.16 17.35 19.45C17.45 19.55 17.55 19.66 17.65 19.76C17.85 19.97 18.06 20.18 18.25 20.4C18.78 21 19.13 21.65 19.24 22.46L19.75 20.87C20.3 19.39 21.34 18.43 22.69 17.75C25.86 16.16 29.56 16.6 31.81 19.27L33.01 21.64C32.52 20.54 32.68 20.33 33.97 20.31C36.04 20.27 37.7 21.03 39.03 22.51C39.43 22.95 39.85 23.38 40.27 23.82C40.48 24.03 40.69 24.24 40.9 24.46C41.53 24.05 41.55 23.53 41.57 23.02C41.58 22.91 41.58 22.8 41.59 22.7C41.57 22.56 41.55 22.42 41.53 22.29C41.49 22 41.44 21.71 41.39 21.43C41.24 20.69 41 19.98 40.47 19.41C39.5 18.36 38.38 17.51 36.96 17.06C36.85 17.02 36.75 16.97 36.61 16.9C36.54 16.86 36.45 16.82 36.35 16.77C37.57 16.58 38.5 16.87 39.37 17.37C39.67 17.53 39.96 17.72 40.24 17.91C40.5 18.08 40.77 18.25 41.04 18.4C41.4 18.61 41.78 18.78 42.17 18.93C42.53 19.08 42.76 18.94 42.81 18.57C42.63 15.59 38.8 12.9 36.19 13.31C35.98 13.34 35.75 13.34 35.53 13.33C35.42 13.33 35.31 13.32 35.2 13.33L31.59 14.07C31.54 14.01 31.5 13.95 31.46 13.9C31.81 13.24 32.28 12.67 32.99 12.28C33.9 11.34 34.98 10.71 36.37 10.67C36.62 10.66 36.86 10.66 37.11 10.66C37.53 10.65 37.94 10.65 38.36 10.62C39.41 10.55 40.34 9.73 40.46 8.81C40.59 7.8 39.92 6.79 38.82 6.54C37.14 6.16 35.48 6.32 34 7.16C33.04 7.72 32.18 8.44 31.33 9.15C31.25 9.21 31.18 9.27 31.1 9.34C30.65 9.71 30.24 10.14 29.83 10.56C29.65 10.75 29.47 10.94 29.28 11.13L28.04 12.75C27.92 12.05 28.12 11.46 28.61 10.95C28.69 10.85 28.77 10.75 28.85 10.65C29.03 10.44 29.2 10.22 29.38 10.02C29.7 9.66 30.02 9.31 30.34 8.95C30.96 8.27 31.59 7.58 32.18 6.87C32.97 5.91 33.34 4.81 33.08 3.57C32.91 2.78 32.47 2.21 31.69 1.9C30.59 1.45 29 1.37 27.93 2.52C27.03 3.49 26.17 4.49 25.37 5.53C24.32 6.9 23.64 8.46 22.96 10.01L22.92 10.1C22.66 11 22.48 11.31 21.84 11.83C21.74 11.24 21.98 10.81 22.22 10.39C22.28 10.28 22.34 10.17 22.4 10.06C22.8 8.89 23.29 7.77 24.09 6.77C24.41 6.37 24.68 5.93 24.95 5.5C25.03 5.36 25.12 5.23 25.2 5.1C25.43 4.74 25.43 4.36 25.28 3.95C24.87 2.84 23.8 2.15 22.48 2.19C21.02 2.24 19.88 2.87 18.89 3.82Z" fill="url(#paint_linear_956_15401_0)" fill-opacity="1.000000" fill-rule="nonzero"/>
		<path id="path" d="M33.7 23.07C33.46 22.53 33.23 21.98 32.99 21.43L31.79 19.06C29.54 16.4 25.84 15.96 22.67 17.55C21.32 18.22 20.28 19.18 19.72 20.67L19.22 22.26C19.37 23.38 19.61 24.49 19.85 25.6C19.89 25.77 19.93 25.94 19.97 26.12C20.04 26.44 20.18 26.78 20.38 27.06C20.74 27.54 20.92 28.05 21.02 28.58L22.36 27.12C22.56 26.89 22.74 26.64 22.92 26.39C23.52 25.59 24.12 24.79 25.06 24.28C25.63 23.96 26.23 23.67 26.86 23.49C27.9 23.2 28.96 23.11 29.82 23.92C30.96 22.95 31.99 22.92 32.88 23.89L33.93 23.93L33.92 23.9C33.86 23.71 33.81 23.52 33.77 23.33C33.75 23.25 33.73 23.16 33.7 23.07Z" fill="#FE2934" fill-opacity="1.000000" fill-rule="nonzero"/>
		<path id="path" d="M35.22 33.46C34.64 32.57 34.93 32.37 34.08 31.74C35.11 31.17 34.88 30.89 35.69 30.82C35.26 30.39 35.12 29.35 35.08 28.74C34.98 27.27 35.09 26.41 34.23 25.11C33.38 23.81 33.11 23.54 32.01 23.23C31.31 22.94 30.55 23.15 29.73 23.85C28.86 23.04 27.81 23.13 26.77 23.42C26.14 23.59 25.53 23.89 24.97 24.2C24.03 24.72 23.43 25.52 22.83 26.32C22.65 26.57 22.46 26.81 22.27 27.05L20.93 28.51C21.11 29.41 21.28 31.12 21.35 32.04C21.9 31.85 22.49 31.73 23.11 31.7C24.25 31.63 25.05 32.04 25.51 33.02C25.58 33.18 25.67 33.33 25.8 33.57C26.21 33.39 26.63 33.25 27.01 33.04C29.43 33.65 31.65 33.37 33.78 33.32C34.34 33.66 34.69 33.71 35.22 33.46Z" fill="#D9D9D9" fill-opacity="1.000000" fill-rule="nonzero"/>
		<path id="path" d="M35.22 33.46C34.64 32.57 34.93 32.37 34.08 31.74C35.11 31.17 34.88 30.89 35.69 30.82C35.26 30.39 35.12 29.35 35.08 28.74C34.98 27.27 35.09 26.41 34.23 25.11C33.38 23.81 33.11 23.54 32.01 23.23C31.31 22.94 30.55 23.15 29.73 23.85C28.86 23.04 27.81 23.13 26.77 23.42C26.14 23.59 25.53 23.89 24.97 24.2C24.03 24.72 23.43 25.52 22.83 26.32C22.65 26.57 22.46 26.81 22.27 27.05L20.93 28.51C21.11 29.41 21.28 31.12 21.35 32.04C21.9 31.85 22.49 31.73 23.11 31.7C24.25 31.63 25.05 32.04 25.51 33.02C25.58 33.18 25.67 33.33 25.8 33.57C26.21 33.39 26.63 33.25 27.01 33.04C29.43 33.65 31.65 33.37 33.78 33.32C34.34 33.66 34.69 33.71 35.22 33.46Z" fill="url(#paint_linear_956_15404_0)" fill-opacity="1.000000" fill-rule="nonzero"/>
		<path id="path" d="M33.59 30.54C34.61 29.99 34.71 29.62 34.66 28.92L34.03 27.5L33.4 26.97L32.7 26.51L31.61 26.55L30.85 27.24L30.35 27.02L28.97 26.71L27.67 26.97L26.36 28.31C26.49 29.35 26.76 30.39 27.57 31.35C29.37 32.21 30.25 31.99 31.53 30.49C32.15 30.93 33.05 30.84 33.59 30.54Z" fill="#FFFFFF" fill-opacity="1.000000" fill-rule="evenodd"/>
		<path id="path" d="" fill="#5B4841" fill-opacity="1.000000" fill-rule="nonzero"/>
		<path id="path" d="" fill="#5B4841" fill-opacity="1.000000" fill-rule="nonzero"/>
		<path id="path" d="" fill="#5B4841" fill-opacity="1.000000" fill-rule="nonzero"/>
		<path id="path" d="M30.23 26.82C28.9 26.06 27.77 26.16 26.94 27.32C26.97 27.89 27.11 28.77 27.11 28.77C26.98 27.04 29.26 26.32 30.51 27.54L30.23 26.82Z" fill="#5B4841" fill-opacity="1.000000" fill-rule="nonzero"/>
		<path id="path" d="M33.72 26.93C33.31 25.62 30.77 26.03 30.86 26.71L31.15 27.54C31.09 26.04 33.48 26.47 33.65 27.54C33.68 27.37 33.72 26.93 33.72 26.93Z" fill="#5B4841" fill-opacity="1.000000" fill-rule="nonzero"/>
		<path id="path" d="" fill="#5B4841" fill-opacity="1.000000" fill-rule="nonzero"/>
		<path id="path" d="M26.48 25.85C26.33 26.22 26.22 26.63 26.25 27.02L26.26 27.12C26.36 28.57 26.46 30.02 27.57 31.35C29.37 32.21 30.25 31.99 31.53 30.49L31.51 30.31L31.15 27.54L30.86 26.71C30.64 26.35 30.44 25.97 30.28 25.59C30.09 25.16 30.6 24.36 31.13 24.29C32.66 24.11 33.56 25.64 33.72 26.93C33.72 26.93 33.68 27.37 33.65 27.54C32.49 28.12 32.68 28.79 32.65 29.49C32.64 30.58 31.83 30.24 31.45 29.89L31.51 30.31L31.52 30.38L31.53 30.49C32.15 30.93 33.05 30.84 33.59 30.54C34.61 29.99 34.71 29.62 34.66 28.92C34.39 27.05 34.21 25.15 32.42 24.13C31.39 23.55 30.83 23.62 30.05 24.48C29.95 24.58 29.88 24.7 29.81 24.82C29.78 24.87 29.76 24.92 29.73 24.96C29.66 24.94 29.6 24.92 29.55 24.91C29.47 24.89 29.41 24.88 29.37 24.85C28.02 24.2 27.02 24.53 26.48 25.85ZM27.16 25.91C27.49 25.04 28.32 24.79 29.14 25.23C29.67 25.51 30.06 25.84 30.23 26.82L30.51 27.54C30.51 27.54 30.62 28.39 30.61 28.4C30.49 28.5 30.11 28.56 29.99 28.65C29.67 28.87 29.36 29.09 29.19 29.38C29.01 29.69 28.98 30.06 28.94 30.45C28.92 30.62 28.9 30.8 28.87 30.97C28.44 31.24 28.09 31.11 27.79 30.68C27.77 30.64 27.74 30.6 27.71 30.56C27.49 30.25 27.18 29.11 27.11 28.77C27.11 28.77 26.97 27.89 26.94 27.32C26.87 26.68 26.89 26.62 27.14 25.96L27.16 25.91ZM30.55 29.56C30.29 30.01 30.28 30.31 30.73 30.62C30.98 30.22 30.99 29.92 30.55 29.56ZM34.06 28.78C34.07 28.99 34.08 29.2 34.11 29.51L34.04 29.56C33.52 29.28 33.55 29.04 33.8 28.77C33.84 28.77 33.89 28.77 33.93 28.77C33.97 28.78 34.01 28.78 34.06 28.78Z" fill="#5B4841" fill-opacity="1.000000" fill-rule="evenodd"/>
		<path id="path" d="M30.23 26.82C28.9 26.06 27.77 26.16 26.94 27.32C26.97 27.89 27.11 28.77 27.11 28.77C26.98 27.04 29.26 26.32 30.51 27.54L30.23 26.82Z" fill="#5B4841" fill-opacity="1.000000" fill-rule="evenodd"/>
		<path id="path" d="M33.53 43.41C33.58 43.27 33.6 43.11 33.65 42.93L35.71 41.79L36.89 39.95L38.87 40.73C39.31 39.16 40.1 37.57 40.45 36.05C40.6 35.39 40.59 34.68 40.49 34.01C40.15 31.92 39.04 31.11 37.24 30.85C36.85 30.79 36.46 30.73 36.07 30.74C34.86 30.77 33.65 30.84 32.5 31.47C33.36 32.11 34.38 32.48 34.95 33.37C34.42 33.62 34.42 33.62 33.85 33.28C31.66 31.95 29.38 31.7 27.06 32.98C26.68 33.19 26.26 33.33 25.85 33.5C25.72 33.26 25.63 33.11 25.56 32.96C25.09 31.98 24.3 31.57 23.16 31.63C21.9 31.7 20.81 32.11 19.81 32.81C17.61 34.34 17 36.75 18.25 39.05C18.66 39.81 19.03 40.59 19.46 41.34C19.66 41.69 19.65 42 19.41 42.3C19.2 42.57 18.94 42.82 18.73 43.1C18.26 43.69 17.72 44.26 17.37 44.91C16.64 46.27 16.33 47.75 16.23 49.28C16.18 50.21 16.27 51.11 16.6 51.98C17.03 53.13 17.84 53.73 19.13 53.68C20.31 53.63 21.49 53.51 22.64 53.3C24.14 53.03 25.56 52.49 26.8 51.65C29.92 49.55 32.17 46.8 33.53 43.41Z" fill="#D9D9D9" fill-opacity="1.000000" fill-rule="nonzero"/>
		<path id="path" d="M33.53 43.41C33.58 43.27 33.6 43.11 33.65 42.93L35.71 41.79L36.89 39.95L38.87 40.73C39.31 39.16 40.1 37.57 40.45 36.05C40.6 35.39 40.59 34.68 40.49 34.01C40.15 31.92 39.04 31.11 37.24 30.85C36.85 30.79 36.46 30.73 36.07 30.74C34.86 30.77 33.65 30.84 32.5 31.47C33.36 32.11 34.38 32.48 34.95 33.37C34.42 33.62 34.42 33.62 33.85 33.28C31.66 31.95 29.38 31.7 27.06 32.98C26.68 33.19 26.26 33.33 25.85 33.5C25.72 33.26 25.63 33.11 25.56 32.96C25.09 31.98 24.3 31.57 23.16 31.63C21.9 31.7 20.81 32.11 19.81 32.81C17.61 34.34 17 36.75 18.25 39.05C18.66 39.81 19.03 40.59 19.46 41.34C19.66 41.69 19.65 42 19.41 42.3C19.2 42.57 18.94 42.82 18.73 43.1C18.26 43.69 17.72 44.26 17.37 44.91C16.64 46.27 16.33 47.75 16.23 49.28C16.18 50.21 16.27 51.11 16.6 51.98C17.03 53.13 17.84 53.73 19.13 53.68C20.31 53.63 21.49 53.51 22.64 53.3C24.14 53.03 25.56 52.49 26.8 51.65C29.92 49.55 32.17 46.8 33.53 43.41Z" fill="#F8CC02" fill-opacity="1.000000" fill-rule="nonzero"/>
		<path id="path" d="M34.02 37.58C33.59 36.58 31.73 35.41 30.82 35.57C30.58 35.61 30.26 35.86 30.2 36.07C30.15 36.28 30.3 36.62 30.49 36.79C30.68 36.98 31.01 37.06 31.3 37.14C31.93 37.31 32.57 37.46 33.21 37.59C33.45 37.63 33.72 37.58 34.02 37.58ZM38.75 36.62C39.35 35.67 39.48 34.8 39.4 33.9C39.4 33.77 39.05 33.56 38.88 33.58C38.65 33.61 38.27 33.82 38.27 33.96C38.25 34.79 38.11 35.65 38.75 36.62Z" fill="#5B4841" fill-opacity="1.000000" fill-rule="nonzero"/>
		<path id="path" d="M22.27 36.74C22.5 37.73 23.15 38.32 24.08 38.65C24.65 38.84 25.23 38.99 25.83 39.11C27.89 39.51 29.98 39.59 32.07 39.67C32.79 39.7 33.51 39.73 34.24 39.77C34.47 39.78 34.71 39.79 34.95 39.8C35.47 39.82 36 39.85 36.53 39.91L36.88 39.95C36.87 40.05 36.86 40.15 36.85 40.26C36.82 40.59 36.78 40.98 36.68 41.29C36.61 41.51 36.5 41.73 36.32 41.91C36.13 42.09 35.89 42.21 35.6 42.26C35.59 42.26 35.58 42.27 35.55 42.28C35.52 42.3 35.48 42.33 35.43 42.36C35.36 42.42 35.3 42.47 35.24 42.52C35.22 42.54 35.19 42.56 35.16 42.58C34.45 43.07 33.62 43.11 33.25 43.12C33.15 43.17 33.07 43.25 32.96 43.44C32.02 45.09 30.85 46.57 29.46 47.92C28.06 49.28 26.54 50.49 24.7 51.31C23.21 51.97 21.67 52.33 20.03 51.89C18.73 51.55 18.1 50.72 18.38 49.47C18.54 48.73 18.89 48.01 19.28 47.34C19.98 46.15 21.06 45.26 22.14 44.38C23.22 43.5 23.44 42.52 22.87 41.3C22.71 40.96 22.54 40.63 22.36 40.3C21.87 39.4 21.51 38.47 21.43 37.45C21.41 37.26 21.31 37.08 21.21 36.88C21.16 36.78 21.11 36.69 21.06 36.58C21.19 36.19 21.6 36.05 21.99 35.92C22.01 35.91 22.02 35.91 22.03 35.91C22.33 35.81 22.72 35.68 22.88 36.04C23 36.3 22.81 36.38 22.62 36.47C22.52 36.51 22.43 36.55 22.37 36.61C22.35 36.63 22.34 36.65 22.31 36.69C22.3 36.7 22.29 36.72 22.27 36.74Z" fill="#5B4841" fill-opacity="1.000000" fill-rule="evenodd"/>
		<path id="path" d="M23.6 48.5C23.61 48.04 23.43 47.66 23.01 47.41C22.36 47.01 20.93 47.06 20.23 47.51C19.69 47.85 18.94 49.48 19.14 50.03C19.24 50.34 19.45 50.67 19.72 50.85C20.05 51.08 20.48 51.26 20.88 51.27C22.69 51.35 24.34 50.84 25.82 49.85C26.41 49.45 26.47 49.06 26.14 48.44C25.81 47.81 25.28 47.61 24.41 47.8C24.37 48.37 24.28 48.91 23.54 49.23C23.55 49.13 23.56 49.03 23.57 48.95C23.59 48.78 23.6 48.64 23.6 48.5Z" fill="#FE2934" fill-opacity="1.000000" fill-rule="nonzero"/>
		<path id="path" d="M34.72 42.08C34.52 42.21 34.11 42.35 34.11 42.35C34.11 42.35 33.55 42.17 33.28 41.96C32.82 42.45 32.18 42.56 31.52 42.62C30.77 42.68 30.22 42.4 29.9 41.75C28.79 42.11 27.76 42.28 27.11 41.11C27 41.11 26.9 41.12 26.8 41.12C26.06 41.17 25.34 41.21 25.11 40.27C25.03 40.27 24.94 40.28 24.85 40.29C24.65 40.32 24.47 40.34 24.38 40.27C24.22 40.12 24.12 39.91 24 39.68C23.95 39.57 23.89 39.46 23.82 39.35C27.95 40.31 32 40.54 36.12 40.54C36.1 40.75 36.07 40.93 36.01 41.1C35.96 41.26 35.9 41.37 35.82 41.45C35.74 41.53 35.63 41.59 35.46 41.62C35.29 41.65 35.1 41.77 35 41.85L34.76 42.04C34.75 42.05 34.73 42.06 34.72 42.08Z" fill="#FFFFFF" fill-opacity="1.000000" fill-rule="nonzero"/>
	</g>
</svg>
