<svg width="64.000000" height="59.851807" viewBox="0 0 64 59.8518" fill="none" xmlns="http://www.w3.org/2000/svg" xmlns:xlink="http://www.w3.org/1999/xlink">
	<desc>
			Created with Pixso.
	</desc>
	<defs/>
	<path id="Vector" d="M22.53 41.47C22.29 41.47 22.08 41.39 21.91 41.24C21.76 41.07 21.68 40.86 21.68 40.62L21.68 37.79C21.68 37.63 21.71 37.38 21.78 37.04C21.86 36.69 22.1 36.37 22.5 36.09L24.39 34.3C26.39 32.82 28.06 31.57 29.39 30.55C30.72 29.51 31.71 28.61 32.36 27.84C33.04 27.08 33.37 26.38 33.37 25.73C33.37 25.2 33.24 24.76 32.98 24.39C32.74 24 32.25 23.8 31.51 23.8C30.97 23.8 30.53 23.92 30.2 24.16C29.88 24.4 29.63 24.69 29.45 25.04C29.3 25.39 29.18 25.73 29.09 26.05C29.01 26.33 28.85 26.53 28.64 26.64C28.42 26.75 28.17 26.8 27.89 26.8L22.79 26.8C22.57 26.8 22.4 26.74 22.27 26.61C22.14 26.45 22.07 26.28 22.07 26.08C22.09 24.93 22.33 23.89 22.79 22.95C23.27 22 23.92 21.16 24.75 20.44C25.58 19.73 26.56 19.18 27.69 18.81C28.84 18.42 30.11 18.23 31.48 18.23C33.39 18.23 35.04 18.52 36.41 19.11C37.78 19.7 38.84 20.52 39.58 21.59C40.32 22.65 40.69 23.92 40.69 25.4C40.69 26.53 40.43 27.58 39.91 28.56C39.38 29.54 38.64 30.47 37.68 31.36C36.73 32.23 35.59 33.14 34.29 34.07L32.69 35.64L40.33 35.64C40.57 35.64 40.77 35.72 40.92 35.9C41.09 36.07 41.18 36.28 41.18 36.52L41.18 40.62C41.18 40.86 41.09 41.07 40.92 41.24C40.77 41.39 40.57 41.47 40.33 41.47L22.53 41.47Z" fill="#D8D1C7" fill-opacity="1.000000" fill-rule="evenodd"/>
	<path id="Vector" d="M8.09 20C8.03 20.06 7.95 20.09 7.86 20.09C7.76 20.09 7.68 20.06 7.62 19.99L1.83 13.87C1.77 13.8 1.74 13.72 1.75 13.63C1.75 13.53 1.78 13.45 1.85 13.39L4.61 10.79C5.16 10.27 5.71 9.91 6.27 9.69C6.83 9.47 7.39 9.42 7.93 9.54C8.47 9.66 8.98 9.97 9.46 10.47C9.93 10.98 10.21 11.5 10.3 12.04C10.37 12.57 10.28 13.11 10.01 13.65C9.75 14.18 9.34 14.7 8.8 15.22L7.9 16.06L9.73 18C9.79 18.07 9.82 18.15 9.82 18.25C9.82 18.34 9.78 18.41 9.71 18.48L8.09 20ZM6.42 14.58L7.31 13.74C7.49 13.57 7.6 13.37 7.62 13.15C7.65 12.91 7.55 12.67 7.33 12.44C7.16 12.26 6.96 12.15 6.72 12.1C6.49 12.05 6.25 12.14 6.01 12.36L5.12 13.2L6.42 14.58Z" fill="#E62A2B" fill-opacity="1.000000" fill-rule="evenodd"/>
	<path id="Vector" d="M24.76 10.17C23.96 10.35 23.23 10.39 22.57 10.28C21.91 10.17 21.35 9.9 20.89 9.47C20.43 9.04 20.1 8.44 19.89 7.68C19.8 7.33 19.71 6.96 19.62 6.57C19.52 6.17 19.44 5.79 19.37 5.43C19.22 4.66 19.27 3.98 19.5 3.4C19.73 2.8 20.12 2.31 20.66 1.92C21.21 1.52 21.88 1.24 22.65 1.06C23.21 0.93 23.75 0.88 24.26 0.9C24.78 0.92 25.26 1.01 25.7 1.2C26.14 1.37 26.52 1.63 26.83 1.98C27.14 2.31 27.36 2.74 27.49 3.26C27.51 3.34 27.49 3.41 27.44 3.47C27.41 3.54 27.35 3.58 27.27 3.59L25.13 4.09C25 4.11 24.9 4.11 24.83 4.07C24.76 4.04 24.69 3.96 24.62 3.84C24.43 3.51 24.21 3.3 23.97 3.22C23.73 3.14 23.46 3.14 23.15 3.21C22.78 3.29 22.51 3.46 22.33 3.72C22.16 3.96 22.12 4.33 22.22 4.84C22.35 5.53 22.52 6.24 22.71 6.96C22.84 7.45 23.04 7.78 23.31 7.93C23.57 8.07 23.89 8.1 24.26 8.01C24.57 7.94 24.81 7.82 24.99 7.63C25.18 7.45 25.28 7.17 25.3 6.8C25.31 6.66 25.33 6.56 25.38 6.51C25.44 6.44 25.53 6.39 25.66 6.36L27.8 5.87C27.87 5.85 27.94 5.86 28.01 5.9C28.08 5.94 28.12 5.99 28.14 6.07C28.25 6.6 28.24 7.08 28.11 7.53C27.98 7.97 27.76 8.36 27.44 8.72C27.12 9.07 26.73 9.37 26.27 9.62C25.82 9.85 25.32 10.04 24.76 10.17Z" fill="#E62A2B" fill-opacity="1.000000" fill-rule="evenodd"/>
	<path id="Vector" d="M31.76 9.18C31.67 9.18 31.58 9.14 31.52 9.08C31.46 9.01 31.43 8.93 31.44 8.83L31.71 2.5L29.47 2.41C29.38 2.4 29.3 2.37 29.23 2.31C29.17 2.23 29.14 2.15 29.15 2.06L29.22 0.32C29.23 0.22 29.26 0.15 29.32 0.09C29.4 0.02 29.48 -0.01 29.57 0L36.88 0.3C36.97 0.31 37.05 0.35 37.11 0.42C37.17 0.48 37.21 0.56 37.2 0.66L37.13 2.39C37.12 2.49 37.08 2.57 37.01 2.64C36.95 2.69 36.87 2.72 36.78 2.72L34.54 2.62L34.27 8.95C34.27 9.05 34.23 9.13 34.16 9.19C34.09 9.25 34.01 9.28 33.92 9.27L31.76 9.18Z" fill="#E62A2B" fill-opacity="1.000000" fill-rule="evenodd"/>
	<path id="Vector" d="M37.83 9.59C37.74 9.56 37.68 9.51 37.63 9.43C37.58 9.35 37.58 9.26 37.6 9.17L40.11 1.14C40.14 1.05 40.2 0.98 40.28 0.94C40.37 0.9 40.46 0.89 40.54 0.91L46.62 2.81C46.71 2.84 46.78 2.9 46.83 2.98C46.88 3.06 46.89 3.15 46.86 3.24L46.4 4.7C46.37 4.78 46.32 4.84 46.23 4.89C46.14 4.94 46.05 4.94 45.96 4.92L42.13 3.72L41.74 4.95L45.31 6.06C45.4 6.09 45.47 6.14 45.51 6.23C45.56 6.31 45.57 6.39 45.54 6.48L45.12 7.82C45.09 7.91 45.04 7.98 44.95 8.03C44.87 8.06 44.78 8.07 44.69 8.04L41.12 6.93L40.73 8.18L44.67 9.41C44.76 9.44 44.83 9.49 44.87 9.58C44.92 9.67 44.93 9.76 44.9 9.85L44.45 11.3C44.42 11.39 44.36 11.46 44.27 11.5C44.19 11.54 44.1 11.54 44.01 11.51L37.83 9.59Z" fill="#E62A2B" fill-opacity="1.000000" fill-rule="evenodd"/>
	<path id="Vector" d="M45.48 12.14C45.41 12.09 45.36 12.02 45.33 11.93C45.31 11.84 45.33 11.75 45.38 11.67L49.88 4.56C49.93 4.48 50 4.43 50.09 4.41C50.19 4.39 50.27 4.41 50.34 4.45L53.55 6.47C54.19 6.88 54.69 7.32 55.04 7.81C55.39 8.3 55.58 8.82 55.6 9.37C55.62 9.93 55.44 10.5 55.07 11.08C54.7 11.67 54.26 12.07 53.76 12.28C53.26 12.49 52.71 12.53 52.13 12.41C51.55 12.29 50.94 12.02 50.3 11.62L49.25 10.96L47.83 13.21C47.78 13.3 47.71 13.35 47.61 13.37C47.53 13.39 47.45 13.37 47.36 13.32L45.48 12.14ZM50.33 9.17L51.36 9.82C51.57 9.95 51.79 10.01 52.02 9.97C52.26 9.94 52.46 9.79 52.63 9.52C52.76 9.31 52.82 9.09 52.81 8.84C52.8 8.6 52.65 8.39 52.38 8.22L51.34 7.57L50.33 9.17Z" fill="#E62A2B" fill-opacity="1.000000" fill-rule="evenodd"/>
	<path id="Vector" d="M54.51 19.2C53.95 18.59 53.56 17.98 53.33 17.36C53.1 16.73 53.06 16.11 53.21 15.5C53.36 14.89 53.71 14.31 54.28 13.74C54.53 13.5 54.81 13.24 55.11 12.96C55.41 12.69 55.7 12.43 55.99 12.18C56.58 11.68 57.2 11.39 57.82 11.3C58.46 11.21 59.08 11.3 59.68 11.58C60.3 11.86 60.87 12.3 61.41 12.89C61.8 13.31 62.11 13.75 62.34 14.2C62.59 14.66 62.74 15.13 62.8 15.6C62.86 16.07 62.82 16.52 62.67 16.96C62.53 17.4 62.26 17.8 61.87 18.17C61.82 18.22 61.75 18.24 61.67 18.23C61.59 18.23 61.53 18.2 61.48 18.14L59.99 16.53C59.91 16.43 59.86 16.34 59.86 16.26C59.85 16.18 59.89 16.08 59.95 15.96C60.15 15.63 60.23 15.34 60.18 15.09C60.13 14.84 59.99 14.61 59.78 14.38C59.53 14.1 59.24 13.94 58.94 13.92C58.64 13.89 58.29 14.04 57.91 14.37C57.36 14.83 56.83 15.32 56.29 15.84C55.93 16.2 55.75 16.53 55.75 16.84C55.75 17.14 55.88 17.43 56.14 17.71C56.35 17.94 56.58 18.09 56.83 18.15C57.08 18.22 57.38 18.18 57.71 18.02C57.84 17.95 57.93 17.92 58.01 17.94C58.09 17.95 58.18 18.01 58.27 18.1L59.75 19.72C59.81 19.78 59.83 19.84 59.83 19.92C59.83 20 59.8 20.06 59.74 20.12C59.34 20.47 58.91 20.71 58.46 20.81C58.02 20.92 57.56 20.92 57.09 20.82C56.63 20.71 56.18 20.52 55.73 20.25C55.3 19.97 54.9 19.62 54.51 19.2Z" fill="#E62A2B" fill-opacity="1.000000" fill-rule="evenodd"/>
	<path id="Vector" d="M0.09 44.09C0.03 44.02 0 43.94 0 43.85C0 43.75 0.04 43.67 0.11 43.61L6.39 37.9C6.47 37.84 6.55 37.81 6.64 37.82C6.74 37.82 6.82 37.86 6.88 37.92L9.69 41.01C10.23 41.6 10.59 42.15 10.77 42.66C10.96 43.18 10.99 43.66 10.86 44.11C10.74 44.55 10.46 44.97 10.03 45.35C9.81 45.55 9.58 45.69 9.32 45.76C9.07 45.82 8.84 45.85 8.61 45.83C8.39 45.81 8.2 45.77 8.05 45.7C8.17 46.06 8.18 46.45 8.09 46.87C8 47.3 7.79 47.66 7.45 47.96C7 48.38 6.52 48.62 6.02 48.69C5.53 48.78 5.03 48.7 4.51 48.46C4 48.22 3.5 47.83 2.99 47.27L0.09 44.09ZM3.22 44.59L4.25 45.72C4.45 45.94 4.66 46.04 4.89 46.03C5.12 46.01 5.31 45.92 5.47 45.78C5.64 45.63 5.74 45.44 5.76 45.22C5.79 44.99 5.71 44.77 5.52 44.57L4.49 43.43L3.22 44.59ZM5.92 42.14L6.86 43.18C7.05 43.38 7.24 43.48 7.45 43.47C7.65 43.46 7.83 43.39 7.99 43.25C8.14 43.11 8.24 42.93 8.26 42.73C8.29 42.53 8.21 42.32 8.02 42.12L7.08 41.08L5.92 42.14Z" fill="#FDA924" fill-opacity="1.000000" fill-rule="nonzero"/>
	<path id="Vector" d="M10.91 53.9C10.22 53.48 9.68 52.99 9.28 52.45C8.9 51.91 8.7 51.33 8.68 50.69C8.68 50.05 8.89 49.38 9.33 48.69L12.15 44.14C12.21 44.06 12.28 44.01 12.37 43.99C12.46 43.97 12.55 43.98 12.62 44.03L14.44 45.15C14.52 45.2 14.57 45.28 14.59 45.37C14.61 45.46 14.6 45.54 14.55 45.62L11.74 50.14C11.51 50.51 11.42 50.86 11.49 51.17C11.55 51.47 11.76 51.74 12.11 51.95C12.46 52.17 12.78 52.23 13.08 52.15C13.39 52.08 13.66 51.85 13.89 51.47L16.7 46.96C16.75 46.87 16.82 46.83 16.91 46.81C17.01 46.79 17.1 46.8 17.18 46.85L18.99 47.97C19.07 48.02 19.12 48.09 19.13 48.18C19.16 48.27 19.15 48.36 19.1 48.44L16.27 52.99C15.83 53.68 15.33 54.17 14.75 54.45C14.18 54.72 13.57 54.81 12.92 54.7C12.26 54.59 11.59 54.33 10.91 53.9Z" fill="#FDA924" fill-opacity="1.000000" fill-rule="nonzero"/>
	<path id="Vector" d="M20.55 58.21C19.67 57.95 18.97 57.62 18.45 57.21C17.95 56.79 17.6 56.34 17.42 55.86C17.26 55.37 17.23 54.91 17.34 54.46C17.36 54.38 17.41 54.33 17.47 54.29C17.54 54.25 17.61 54.25 17.68 54.27L19.68 54.85C19.8 54.89 19.89 54.93 19.94 55C20 55.05 20.06 55.12 20.11 55.21C20.16 55.32 20.22 55.44 20.3 55.55C20.38 55.65 20.49 55.75 20.64 55.85C20.78 55.94 20.96 56.01 21.17 56.08C21.56 56.19 21.87 56.22 22.11 56.18C22.35 56.14 22.5 56.02 22.55 55.84C22.59 55.69 22.57 55.56 22.48 55.43C22.4 55.31 22.23 55.17 21.99 55.02C21.74 54.86 21.4 54.68 20.96 54.46C20.35 54.16 19.83 53.84 19.43 53.5C19.02 53.14 18.74 52.75 18.6 52.31C18.46 51.87 18.47 51.39 18.63 50.85C18.79 50.31 19.08 49.87 19.5 49.54C19.94 49.21 20.46 49.01 21.07 48.93C21.7 48.86 22.37 48.93 23.1 49.14C23.71 49.31 24.22 49.55 24.63 49.84C25.05 50.14 25.39 50.46 25.63 50.82C25.88 51.16 26.04 51.5 26.12 51.84C26.21 52.19 26.21 52.49 26.14 52.76C26.12 52.84 26.07 52.9 25.99 52.94C25.93 52.97 25.86 52.98 25.8 52.96L23.69 52.35C23.59 52.32 23.51 52.28 23.44 52.22C23.39 52.17 23.34 52.1 23.3 52.01C23.3 51.88 23.22 51.74 23.08 51.6C22.94 51.46 22.74 51.35 22.48 51.28C22.19 51.19 21.96 51.18 21.78 51.24C21.6 51.28 21.49 51.4 21.43 51.58C21.39 51.71 21.41 51.83 21.47 51.95C21.54 52.07 21.68 52.2 21.89 52.35C22.11 52.48 22.41 52.65 22.81 52.86C23.57 53.21 24.16 53.56 24.59 53.92C25.02 54.28 25.3 54.67 25.42 55.09C25.54 55.51 25.53 55.98 25.38 56.51C25.2 57.1 24.88 57.56 24.41 57.89C23.94 58.22 23.37 58.41 22.7 58.47C22.04 58.52 21.32 58.44 20.55 58.21Z" fill="#FDA924" fill-opacity="1.000000" fill-rule="nonzero"/>
	<path id="Vector" d="M27.12 59.43C27.03 59.42 26.95 59.39 26.89 59.32C26.83 59.24 26.8 59.16 26.81 59.06L27.56 50.62C27.57 50.52 27.61 50.44 27.69 50.39C27.76 50.33 27.84 50.3 27.93 50.31L30.15 50.5C30.25 50.51 30.32 50.55 30.38 50.63C30.44 50.7 30.47 50.78 30.46 50.87L29.71 59.32C29.7 59.42 29.66 59.49 29.58 59.56C29.51 59.61 29.43 59.64 29.34 59.63L27.12 59.43Z" fill="#FDA924" fill-opacity="1.000000" fill-rule="nonzero"/>
	<path id="Vector" d="M32.68 59.84C32.59 59.85 32.51 59.83 32.43 59.78C32.35 59.72 32.31 59.64 32.3 59.55L31.32 51.12C31.31 51.03 31.33 50.94 31.4 50.88C31.46 50.8 31.53 50.75 31.62 50.74L33.35 50.54C33.51 50.53 33.62 50.55 33.7 50.62C33.78 50.68 33.83 50.73 33.86 50.76L37.05 54.75L36.56 50.52C36.54 50.42 36.57 50.34 36.63 50.27C36.69 50.19 36.77 50.15 36.85 50.14L38.82 49.91C38.92 49.9 39 49.92 39.07 49.99C39.14 50.04 39.19 50.11 39.2 50.21L40.18 58.63C40.19 58.73 40.17 58.81 40.1 58.89C40.05 58.96 39.98 59 39.88 59.01L38.16 59.21C38 59.23 37.87 59.21 37.8 59.15C37.72 59.08 37.66 59.02 37.63 58.99L34.48 55.25L34.94 59.24C34.95 59.33 34.93 59.42 34.87 59.5C34.81 59.57 34.74 59.61 34.64 59.62L32.68 59.84Z" fill="#FDA924" fill-opacity="1.000000" fill-rule="nonzero"/>
	<path id="Vector" d="M43.46 58.07C43.37 58.1 43.29 58.1 43.2 58.07C43.11 58.03 43.05 57.97 43.01 57.88L39.82 50.02C39.78 49.93 39.78 49.85 39.83 49.77C39.87 49.67 39.92 49.61 40.01 49.58L45.96 47.17C46.05 47.13 46.14 47.14 46.23 47.17C46.32 47.2 46.38 47.26 46.42 47.35L47 48.78C47.03 48.86 47.03 48.95 46.99 49.04C46.95 49.13 46.89 49.2 46.8 49.23L43.04 50.75L43.53 51.95L47.02 50.54C47.11 50.5 47.2 50.51 47.29 50.54C47.38 50.57 47.44 50.63 47.48 50.72L48.01 52.03C48.04 52.12 48.04 52.21 48 52.3C47.96 52.39 47.9 52.45 47.81 52.48L44.32 53.89L44.82 55.12L48.67 53.56C48.76 53.52 48.85 53.52 48.94 53.56C49.03 53.6 49.09 53.66 49.13 53.75L49.71 55.17C49.74 55.26 49.74 55.35 49.7 55.44C49.66 55.52 49.6 55.58 49.51 55.62L43.46 58.07Z" fill="#FDA924" fill-opacity="1.000000" fill-rule="nonzero"/>
	<path id="Vector" d="M55.48 51.93C54.75 52.48 54.06 52.84 53.42 53.01C52.78 53.16 52.21 53.17 51.72 53.02C51.23 52.87 50.84 52.61 50.55 52.25C50.5 52.19 50.48 52.12 50.49 52.05C50.5 51.98 50.54 51.92 50.6 51.87L52.26 50.61C52.36 50.54 52.45 50.5 52.53 50.49C52.61 50.48 52.7 50.48 52.81 50.48C52.93 50.51 53.06 50.53 53.19 50.54C53.32 50.54 53.47 50.51 53.64 50.45C53.79 50.38 53.96 50.29 54.14 50.15C54.46 49.91 54.67 49.68 54.78 49.47C54.89 49.25 54.88 49.06 54.77 48.91C54.68 48.79 54.56 48.73 54.4 48.72C54.25 48.72 54.04 48.76 53.77 48.87C53.5 48.98 53.15 49.14 52.71 49.36C52.11 49.67 51.54 49.89 51.02 50.01C50.49 50.12 50.01 50.11 49.57 49.97C49.14 49.82 48.75 49.52 48.42 49.07C48.07 48.62 47.9 48.12 47.88 47.59C47.88 47.04 48.03 46.5 48.33 45.97C48.65 45.42 49.11 44.92 49.71 44.47C50.22 44.09 50.71 43.82 51.19 43.66C51.68 43.5 52.14 43.43 52.57 43.44C52.99 43.45 53.37 43.53 53.69 43.66C54.02 43.8 54.27 43.98 54.44 44.2C54.49 44.26 54.51 44.34 54.49 44.42C54.48 44.49 54.45 44.55 54.4 44.59L52.65 45.91C52.56 45.97 52.48 46.02 52.4 46.04C52.32 46.05 52.23 46.04 52.14 46.02C52.03 45.95 51.88 45.93 51.68 45.95C51.48 45.98 51.27 46.08 51.06 46.24C50.82 46.42 50.67 46.6 50.61 46.78C50.54 46.95 50.56 47.11 50.68 47.26C50.76 47.37 50.87 47.43 51 47.45C51.14 47.47 51.32 47.43 51.57 47.35C51.81 47.26 52.12 47.12 52.53 46.92C53.26 46.52 53.9 46.26 54.44 46.13C54.99 46 55.47 46.01 55.88 46.16C56.29 46.31 56.66 46.61 56.99 47.05C57.37 47.54 57.55 48.07 57.53 48.64C57.51 49.22 57.33 49.79 56.97 50.36C56.62 50.92 56.12 51.45 55.48 51.93Z" fill="#FDA924" fill-opacity="1.000000" fill-rule="nonzero"/>
	<path id="Vector" d="M62.77 44.85C62.2 45.57 61.62 46.09 61.04 46.41C60.46 46.72 59.92 46.87 59.41 46.85C58.89 46.83 58.45 46.68 58.07 46.4C58.01 46.36 57.98 46.29 57.97 46.22C57.96 46.15 57.98 46.08 58.03 46.02L59.32 44.39C59.4 44.29 59.48 44.23 59.55 44.2C59.62 44.17 59.71 44.14 59.81 44.12C59.94 44.12 60.07 44.11 60.2 44.08C60.33 44.05 60.46 43.98 60.61 43.88C60.75 43.78 60.88 43.64 61.02 43.47C61.27 43.16 61.42 42.88 61.47 42.64C61.52 42.4 61.47 42.22 61.31 42.1C61.2 42.01 61.06 41.98 60.91 42.02C60.77 42.05 60.58 42.15 60.34 42.32C60.11 42.49 59.8 42.74 59.44 43.06C58.93 43.52 58.44 43.87 57.97 44.12C57.48 44.36 57.01 44.47 56.56 44.44C56.1 44.4 55.65 44.21 55.21 43.86C54.76 43.51 54.47 43.07 54.32 42.56C54.18 42.03 54.19 41.47 54.35 40.88C54.51 40.27 54.83 39.67 55.3 39.08C55.69 38.59 56.1 38.2 56.53 37.93C56.96 37.65 57.39 37.46 57.81 37.37C58.22 37.27 58.6 37.25 58.95 37.3C59.3 37.35 59.59 37.46 59.81 37.63C59.87 37.68 59.91 37.75 59.92 37.83C59.93 37.91 59.91 37.97 59.87 38.02L58.51 39.74C58.44 39.82 58.37 39.88 58.3 39.92C58.22 39.96 58.14 39.97 58.04 39.97C57.92 39.93 57.76 39.95 57.58 40.02C57.4 40.1 57.22 40.25 57.05 40.46C56.87 40.69 56.77 40.9 56.75 41.09C56.73 41.27 56.79 41.42 56.94 41.54C57.05 41.62 57.17 41.66 57.3 41.64C57.44 41.62 57.61 41.55 57.82 41.4C58.03 41.25 58.3 41.04 58.64 40.75C59.26 40.17 59.81 39.76 60.3 39.5C60.8 39.24 61.26 39.13 61.7 39.17C62.13 39.21 62.57 39.4 63 39.75C63.49 40.13 63.79 40.6 63.92 41.16C64.05 41.71 64.01 42.31 63.81 42.96C63.61 43.59 63.26 44.22 62.77 44.85Z" fill="#FDA924" fill-opacity="1.000000" fill-rule="nonzero"/>
	<path id="Vector" d="M14.25 14.39C14.34 14.41 14.43 14.4 14.51 14.36L15.18 13.99C15.64 13.74 16 13.49 16.27 13.25C16.55 13 16.76 12.72 16.89 12.42C17.02 12.11 17.09 11.76 17.11 11.37C17.14 10.96 17.12 10.48 17.07 9.94L16.48 3.55C16.47 3.5 16.46 3.46 16.46 3.41C16.45 3.36 16.43 3.31 16.41 3.27C16.38 3.21 16.32 3.17 16.25 3.16C16.17 3.13 16.1 3.14 16.02 3.18L14.15 4.2C14.06 4.24 14 4.31 13.97 4.38C13.93 4.46 13.91 4.54 13.92 4.65L14.23 8.03L11.39 6.03C11.31 5.98 11.23 5.94 11.15 5.92C11.07 5.91 10.99 5.92 10.91 5.97L8.92 7.05C8.84 7.09 8.79 7.16 8.76 7.24C8.74 7.32 8.74 7.4 8.78 7.47C8.8 7.5 8.82 7.52 8.85 7.55L14.42 11.2C14.39 11.37 14.33 11.52 14.23 11.65C14.13 11.78 14 11.9 13.81 12L13.36 12.25C13.27 12.29 13.22 12.36 13.19 12.46C13.16 12.54 13.18 12.62 13.22 12.71L14.05 14.22C14.1 14.31 14.16 14.36 14.25 14.39Z" fill="#E62A2B" fill-opacity="1.000000" fill-rule="evenodd"/>
</svg>
