<svg width="34" height="34" viewBox="0 0 34 34" fill="none" xmlns="http://www.w3.org/2000/svg">
<path d="M13.8532 5.37127C13.1957 3.7265 11.9044 2.57422 10.0284 2.42368C7.32161 2.20692 5.47728 2.26733 3.13396 2.29942C1.9433 2.31573 0.912296 3.14488 0.66078 4.30879C0.320918 5.88153 1.51935 7.3666 3.12839 7.3666H14.3993C13.9393 5.70629 13.8532 5.37127 13.8532 5.37127Z" fill="#FDA924"/>
<path fill-rule="evenodd" clip-rule="evenodd" d="M10.1504 21.9472L7.19971 9.40674H27.1917C30.1157 9.40674 32.2771 12.108 31.6126 14.9319L29.962 21.9472C29.7223 22.966 28.8064 23.6867 27.7515 23.6867H12.3609C11.306 23.6867 10.3901 22.966 10.1504 21.9472ZM13.6191 13.5219C13.6191 14.1435 14.123 14.6474 14.7446 14.6474L19.3031 14.6474C19.9247 14.6474 20.4286 14.1435 20.4286 13.5219C20.4286 12.9003 19.9247 12.3963 19.3031 12.3963H14.7446C14.123 12.3964 13.6191 12.9003 13.6191 13.5219Z" fill="white"/>
<path d="M9.26411 30.3336C9.38396 28.711 10.7379 27.2065 12.4521 26.8188C14.0618 26.4553 15.4354 27.5024 15.4279 29.0871C15.4204 30.6857 14.1555 32.2616 12.4915 32.7417C10.6433 33.2756 9.13902 32.0273 9.26411 30.3336Z" fill="#FDA924"/>
<path d="M9.26411 30.3336C9.38396 28.711 10.7379 27.2065 12.4521 26.8188C14.0618 26.4553 15.4354 27.5024 15.4279 29.0871C15.4204 30.6857 14.1555 32.2616 12.4915 32.7417C10.6433 33.2756 9.13902 32.0273 9.26411 30.3336Z" stroke="white"/>
<path d="M24.6918 30.3336C24.8117 28.711 26.1656 27.2065 27.8798 26.8188C29.4895 26.4553 30.8631 27.5024 30.8557 29.0871C30.8482 30.6857 29.5832 32.2616 27.9192 32.7417C26.0711 33.2756 24.5668 32.0273 24.6918 30.3336Z" fill="#FDA924"/>
<path d="M24.6918 30.3336C24.8117 28.711 26.1656 27.2065 27.8798 26.8188C29.4895 26.4553 30.8631 27.5024 30.8557 29.0871C30.8482 30.6857 29.5832 32.2616 27.9192 32.7417C26.0711 33.2756 24.5668 32.0273 24.6918 30.3336Z" stroke="white"/>
</svg>
