<svg width="40" height="40" viewBox="0 0 40 40" fill="none" xmlns="http://www.w3.org/2000/svg">
<circle cx="20" cy="20" r="20" fill="#E62A2B"/>
<circle cx="20" cy="20" r="20" fill="url(#paint0_radial_2154_13311)"/>
<path fill-rule="evenodd" clip-rule="evenodd" d="M20.0009 11.667C17.7378 11.667 17.4537 11.6769 16.5648 11.7173C15.6777 11.758 15.0722 11.8984 14.5423 12.1045C13.9942 12.3173 13.5293 12.602 13.0661 13.0654C12.6026 13.5286 12.3179 13.9935 12.1043 14.5414C11.8977 15.0714 11.7571 15.6771 11.7172 16.5639C11.6774 17.4528 11.667 17.737 11.667 20.0001C11.667 22.2633 11.6771 22.5464 11.7173 23.4353C11.7581 24.3224 11.8986 24.928 12.1045 25.4578C12.3175 26.0059 12.6022 26.4708 13.0656 26.934C13.5286 27.3975 13.9935 27.6829 14.5413 27.8958C15.0715 28.1019 15.6772 28.2423 16.5642 28.2829C17.453 28.3234 17.7369 28.3333 19.9999 28.3333C22.2632 28.3333 22.5464 28.3234 23.4353 28.2829C24.3224 28.2423 24.9286 28.1019 25.4588 27.8958C26.0067 27.6829 26.471 27.3975 26.934 26.934C27.3975 26.4708 27.6822 26.0059 27.8958 25.458C28.1006 24.928 28.2413 24.3223 28.2829 23.4355C28.3229 22.5466 28.3333 22.2633 28.3333 20.0001C28.3333 17.737 28.3229 17.453 28.2829 16.5641C28.2413 15.677 28.1006 15.0714 27.8958 14.5416C27.6822 13.9935 27.3975 13.5286 26.934 13.0654C26.4705 12.6019 26.0069 12.3172 25.4583 12.1045C24.9271 11.8984 24.3212 11.758 23.434 11.7173C22.5452 11.6769 22.2622 11.667 19.9983 11.667H20.0009ZM19.2534 13.1688C19.4753 13.1685 19.7228 13.1688 20.001 13.1688C22.2259 13.1688 22.4896 13.1768 23.3683 13.2167C24.1808 13.2539 24.6217 13.3896 24.9155 13.5037C25.3044 13.6547 25.5816 13.8353 25.8731 14.127C26.1648 14.4186 26.3453 14.6964 26.4967 15.0853C26.6108 15.3787 26.7467 15.8196 26.7837 16.6321C26.8236 17.5106 26.8323 17.7744 26.8323 19.9983C26.8323 22.2223 26.8236 22.4861 26.7837 23.3646C26.7465 24.1771 26.6108 24.618 26.4967 24.9114C26.3457 25.3003 26.1648 25.5772 25.8731 25.8687C25.5814 26.1604 25.3045 26.3409 24.9155 26.492C24.6221 26.6065 24.1808 26.7419 23.3683 26.7791C22.4898 26.819 22.2259 26.8277 20.001 26.8277C17.7758 26.8277 17.5121 26.819 16.6336 26.7791C15.8211 26.7416 15.3802 26.6058 15.0863 26.4918C14.6974 26.3407 14.4196 26.1602 14.1279 25.8685C13.8363 25.5769 13.6557 25.2998 13.5043 24.9107C13.3903 24.6173 13.2543 24.1764 13.2174 23.3639C13.1774 22.4854 13.1694 22.2216 13.1694 19.9963C13.1694 17.771 13.1774 17.5085 13.2174 16.63C13.2545 15.8175 13.3903 15.3766 13.5043 15.0828C13.6554 14.694 13.8363 14.4162 14.1279 14.1245C14.4196 13.8329 14.6974 13.6523 15.0863 13.5009C15.38 13.3863 15.8211 13.2509 16.6336 13.2136C17.4024 13.1789 17.7003 13.1685 19.2534 13.1667V13.1688ZM24.4489 14.5525C23.8968 14.5525 23.4489 14.9999 23.4489 15.5522C23.4489 16.1042 23.8968 16.5521 24.4489 16.5521C25.0009 16.5521 25.4489 16.1042 25.4489 15.5522C25.4489 15.0001 25.0009 14.5522 24.4489 14.5522V14.5525ZM20.0008 15.7206C17.6375 15.7206 15.7213 17.6367 15.7213 20C15.7213 22.3634 17.6375 24.2786 20.0008 24.2786C22.3641 24.2786 24.2796 22.3634 24.2796 20C24.2796 17.6367 22.364 15.7206 20.0006 15.7206H20.0008ZM20.0008 17.2225C21.5349 17.2225 22.7786 18.4661 22.7786 20.0002C22.7786 21.5342 21.5349 22.778 20.0008 22.778C18.4667 22.778 17.2231 21.5342 17.2231 20.0002C17.2231 18.4661 18.4667 17.2225 20.0008 17.2225V17.2225Z" fill="white"/>
<defs>
<radialGradient id="paint0_radial_2154_13311" cx="0" cy="0" r="1" gradientUnits="userSpaceOnUse" gradientTransform="translate(11.1111 -2.66667) rotate(75.9638) scale(43.9798 110.314)">
<stop stop-color="#6E53CF"/>
<stop offset="0.153827" stop-color="#BF23CB"/>
<stop offset="0.429125" stop-color="#EB4256"/>
<stop offset="0.723363" stop-color="#F68531"/>
<stop offset="1" stop-color="#FED06E"/>
</radialGradient>
</defs>
</svg>
