<svg width="40" height="40" viewBox="0 0 40 40" fill="none" xmlns="http://www.w3.org/2000/svg">
<path d="M34.6668 14.0469V26.6669C34.6669 27.6871 34.238 28.6689 33.4681 29.4112C32.6982 30.1535 31.6453 30.6003 30.5249 30.6602L30.2668 30.6669H9.73349C8.61118 30.6669 7.53127 30.2771 6.71471 29.5771C5.89815 28.8772 5.40667 27.92 5.34083 26.9015L5.3335 26.6669V14.0469L19.1861 22.4429L19.3563 22.5309C19.5568 22.6199 19.777 22.6662 20.0001 22.6662C20.2233 22.6662 20.4435 22.6199 20.644 22.5309L20.8141 22.4429L34.6668 14.0469Z" fill="#E62A2B"/>
<path d="M30.267 9.3335C31.851 9.3335 33.2399 10.0935 34.0143 11.2362L20.0003 19.7295L5.98633 11.2362C6.35416 10.6933 6.85942 10.2382 7.45999 9.90881C8.06056 9.57947 8.73904 9.38541 9.43886 9.34283L9.73366 9.3335H30.267Z" fill="#FDA924"/>
</svg>
