<svg width="30" height="22" viewBox="0 0 30 22" fill="none" xmlns="http://www.w3.org/2000/svg">
<path d="M29.6666 5.04688V17.6669C29.6667 18.6871 29.2379 19.6689 28.4679 20.4112C27.698 21.1535 26.6451 21.6003 25.5247 21.6602L25.2666 21.6669H4.73331C3.611 21.6669 2.53109 21.2771 1.71453 20.5771C0.897969 19.8772 0.406489 18.92 0.340646 17.9015L0.333313 17.6669V5.04688L14.186 13.4429L14.3561 13.5309C14.5566 13.6199 14.7768 13.6662 15 13.6662C15.2231 13.6662 15.4433 13.6199 15.6438 13.5309L15.814 13.4429L29.6666 5.04688Z" fill="#E62A2B"/>
<path d="M25.2667 0.333496C26.8507 0.333496 28.2396 1.0935 29.014 2.23616L15 10.7295L0.986023 2.23616C1.35385 1.69326 1.85911 1.23816 2.45969 0.908815C3.06026 0.579467 3.73874 0.385412 4.43855 0.342829L4.73335 0.333496H25.2667Z" fill="#FDA924"/>
</svg>
