<svg width="40" height="41" viewBox="0 0 40 41" fill="none" xmlns="http://www.w3.org/2000/svg">
<path fill-rule="evenodd" clip-rule="evenodd" d="M23.0549 27.5239L22.6749 27.9039C22.543 28.0361 22.3728 28.1233 22.1885 28.1532C22.0042 28.1831 21.8151 28.1542 21.6482 28.0706C17.6929 26.093 14.4858 22.8859 12.5082 18.9306C12.4246 18.7636 12.3956 18.5746 12.4256 18.3903C12.4555 18.206 12.5427 18.0358 12.6749 17.9039L13.0549 17.5239L6.5477 11.0168C5.75236 12.2784 5.2729 13.7252 5.16576 15.2334C5.01023 17.4227 5.64961 19.5947 6.96653 21.3506L8.93653 23.9756C11.1159 26.8815 13.6973 29.4629 16.6032 31.6422L19.2282 33.6122C20.9841 34.9292 23.156 35.5685 25.3454 35.413C26.8536 35.3059 28.3004 34.8264 29.562 34.0311L23.0549 27.5239Z" fill="#E62A2B"/>
<path d="M32.1073 29.5571L27.6939 25.1438V25.1455C27.5391 24.9905 27.3553 24.8676 27.153 24.7837C26.9507 24.6998 26.7338 24.6567 26.5147 24.6567C26.2957 24.6567 26.0788 24.6998 25.8765 24.7837C25.6742 24.8676 25.4904 24.9905 25.3356 25.1455L24.0156 26.4655L30.5227 32.9726C31.0827 32.6196 31.6061 32.2045 32.0823 31.732C32.0906 31.7237 32.099 31.7154 32.1073 31.7071C32.1249 31.6895 32.1421 31.6714 32.1588 31.653C32.2759 31.5238 32.37 31.3754 32.4369 31.214C32.4369 31.214 32.4369 31.214 32.4369 31.214C32.5133 31.0295 32.5526 30.8318 32.5526 30.6321C32.5526 30.6197 32.5525 30.6072 32.5522 30.5947C32.5476 30.4078 32.5085 30.2233 32.4369 30.0503C32.4321 30.0388 32.4272 30.0273 32.4221 30.0159C32.3463 29.845 32.2396 29.6895 32.1073 29.5571Z" fill="#FDA924"/>
<path d="M14.0156 16.4655L15.3372 15.1438C15.6497 14.8313 15.8252 14.4074 15.8252 13.9655C15.8252 13.9378 15.8245 13.9103 15.8232 13.8828C15.8028 13.471 15.6302 13.0801 15.3372 12.7871L10.9239 8.3738C10.9063 8.35615 10.8882 8.33896 10.8698 8.32223C10.7406 8.20515 10.5921 8.11103 10.4307 8.04416C10.4077 8.03461 10.3844 8.02564 10.361 8.01725C10.1968 7.95852 10.0236 7.92841 9.84892 7.92841C9.84892 7.92841 9.84892 7.92841 9.84892 7.92841C9.83644 7.92841 9.82397 7.92856 9.81151 7.92887C9.6246 7.93347 9.44003 7.97252 9.26711 8.04416C9.25558 8.04894 9.24412 8.05385 9.23272 8.05891C9.06181 8.1347 8.90625 8.24142 8.77392 8.3738C8.29114 8.85663 7.86757 9.3886 7.50842 9.95831L14.0156 16.4655Z" fill="#FDA924"/>
<path d="M20.0787 13.2347V11.1939C22.2438 11.1939 24.3201 12.0539 25.851 13.5849C27.3819 15.1158 28.242 17.1921 28.242 19.3572H26.2012C26.2012 17.7334 25.5561 16.1761 24.408 15.0279C23.2598 13.8797 21.7025 13.2347 20.0787 13.2347ZM20.0787 7.11226V5.07144C23.8675 5.07144 27.5012 6.57654 30.1803 9.25563C32.8594 11.9347 34.3645 15.5683 34.3645 19.3572H32.3236C32.3236 16.1096 31.0335 12.9951 28.7372 10.6987C26.4408 8.40234 23.3263 7.11226 20.0787 7.11226Z" fill="#EBEBEB"/>
</svg>
