<svg width="30" height="31" viewBox="0 0 30 31" fill="none" xmlns="http://www.w3.org/2000/svg">
<path fill-rule="evenodd" clip-rule="evenodd" d="M18.0549 23.0238L17.6749 23.4038C17.543 23.5359 17.3728 23.6231 17.1885 23.6531C17.0042 23.683 16.8152 23.6541 16.6483 23.5704C12.693 21.5929 9.48582 18.3857 7.50826 14.4304C7.42462 14.2635 7.3957 14.0745 7.42562 13.8902C7.45554 13.7059 7.54277 13.5357 7.67492 13.4038L8.05492 13.0238L1.54776 6.5166C0.752417 7.77824 0.272962 9.22501 0.165817 10.7333C0.0102889 12.9226 0.649673 15.0946 1.96659 16.8504L3.93659 19.4754C6.11593 22.3814 8.69731 24.9628 11.6033 27.1421L14.2283 29.1121C15.9841 30.429 18.1561 31.0684 20.3454 30.9129C21.8537 30.8057 23.3004 30.3263 24.5621 29.5309L18.0549 23.0238Z" fill="#E62A2B"/>
<path d="M27.1074 25.057L22.694 20.6436V20.6453C22.5393 20.4903 22.3554 20.3674 22.1531 20.2835C21.9508 20.1996 21.7339 20.1565 21.5149 20.1565C21.2958 20.1565 21.079 20.1996 20.8766 20.2835C20.6743 20.3674 20.4905 20.4903 20.3357 20.6453L19.0157 21.9653L25.5229 28.4724C26.0828 28.1195 26.6063 27.7043 27.0824 27.2318C27.0908 27.2235 27.0991 27.2152 27.1074 27.207C27.125 27.1893 27.1422 27.1713 27.1589 27.1528C27.276 27.0237 27.3701 26.8752 27.437 26.7138C27.437 26.7138 27.437 26.7138 27.437 26.7138C27.5134 26.5293 27.5528 26.3316 27.5528 26.132C27.5528 26.1195 27.5526 26.107 27.5523 26.0945C27.5477 25.9076 27.5087 25.7231 27.437 25.5501C27.4322 25.5386 27.4273 25.5272 27.4223 25.5158C27.3465 25.3448 27.2397 25.1893 27.1074 25.057Z" fill="#FDA924"/>
<path d="M9.0157 11.9653L10.3374 10.6436C10.6498 10.3311 10.8253 9.90723 10.8253 9.46529C10.8253 9.43766 10.8247 9.41011 10.8233 9.38266C10.8029 8.9708 10.6303 8.57996 10.3374 8.28695L5.92404 3.87362C5.90639 3.85597 5.88834 3.83877 5.86989 3.82205C5.74073 3.70497 5.59224 3.61085 5.43085 3.54398C5.40779 3.53443 5.38453 3.52545 5.36108 3.51706C5.19694 3.45834 5.02374 3.42822 4.84904 3.42822C4.84904 3.42822 4.84904 3.42822 4.84904 3.42822C4.83656 3.42822 4.82409 3.42838 4.81163 3.42868C4.62472 3.43328 4.44015 3.47233 4.26723 3.54398C4.2557 3.54876 4.24424 3.55367 4.23285 3.55872C4.06193 3.63452 3.90637 3.74124 3.77404 3.87362C3.29126 4.35645 2.86769 4.88841 2.50854 5.45813L9.0157 11.9653Z" fill="#FDA924"/>
<path d="M15.0787 8.73455V6.69374C17.2438 6.69374 19.3201 7.55379 20.851 9.0847C22.3819 10.6156 23.242 12.692 23.242 14.857H21.2012C21.2012 13.2332 20.5561 11.676 19.408 10.5278C18.2598 9.3796 16.7025 8.73455 15.0787 8.73455ZM15.0787 2.61211V0.571289C18.8675 0.571289 22.5012 2.07639 25.1803 4.75548C27.8594 7.43457 29.3645 11.0682 29.3645 14.857H27.3236C27.3236 11.6095 26.0335 8.49492 23.7372 6.19855C21.4408 3.90219 18.3263 2.61211 15.0787 2.61211Z" fill="#EBEBEB"/>
</svg>
