<svg width="10" height="12" viewBox="0 0 10 12" fill="none" xmlns="http://www.w3.org/2000/svg">
<path d="M3.28354 2.12469C3.28269 2.12556 3.28203 2.12659 3.28159 2.12774L0.0803305 10.4901C-0.31993 11.5357 0.862971 12.458 1.69917 11.7524L7.61843 6.75719C8.09119 6.35824 8.14282 5.61814 7.69833 5.18479C6.15805 3.68313 4.55759 2.71828 3.29286 2.12291C3.28969 2.12141 3.28603 2.12214 3.28354 2.12469ZM2.42346 8.45176C2.06158 8.1801 1.98056 7.6645 2.24522 7.28751C2.50988 6.91051 3.0122 6.8329 3.37948 7.10456C3.74677 7.37621 3.82238 7.89181 3.55772 8.2688C3.29306 8.6458 2.79075 8.72342 2.42346 8.45176ZM5.12949 6.8329C4.7676 6.56124 4.68659 6.04564 4.95125 5.66865C5.21591 5.29165 5.71822 5.21404 6.08551 5.48569C6.45279 5.75735 6.52841 6.27295 6.26375 6.64994C5.99909 7.02694 5.49677 7.10456 5.12949 6.8329Z" fill="#E62A2B"/>
<path d="M9.32626 5.31471C9.32626 5.31415 9.3265 5.31363 9.32691 5.31328L9.66456 5.0294C10.0658 4.69203 10.1193 4.06873 9.75854 3.68418C8.11654 1.93413 6.33254 0.790083 4.81585 0.0620544C4.47024 -0.103845 4.0686 0.0759369 3.92616 0.446113C3.78708 0.807567 3.94685 1.21833 4.28017 1.38954C5.79043 2.16526 7.6338 3.40263 9.32323 5.31593C9.3243 5.31715 9.32626 5.31637 9.32626 5.31471Z" fill="#E62A2B"/>
</svg>
