<svg width="40" height="40" viewBox="0 0 40 40" fill="none" xmlns="http://www.w3.org/2000/svg">
<circle cx="20" cy="20" r="20" fill="#0077FF"/>
<path fill-rule="evenodd" clip-rule="evenodd" d="M27.9509 15.6771C28.0662 15.2871 27.9509 15 27.3988 15H25.5759C25.1121 15 24.8982 15.2479 24.7822 15.5214C24.7822 15.5214 23.8551 17.8043 22.542 19.2871C22.117 19.7171 21.9239 19.8536 21.692 19.8536C21.576 19.8536 21.4017 19.7171 21.4017 19.3264V15.6771C21.4017 15.2086 21.2739 15 20.8878 15H18.0212C17.7317 15 17.5574 15.2171 17.5574 15.4236C17.5574 15.8671 18.2143 15.97 18.2816 17.2186V19.9314C18.2816 20.5264 18.1754 20.6343 17.9435 20.6343C17.3254 20.6343 15.822 18.3407 14.9296 15.7164C14.7567 15.2057 14.5817 15 14.1158 15H12.2915C11.7707 15 11.6665 15.2479 11.6665 15.5214C11.6665 16.0086 12.2845 18.4286 14.5449 21.6293C16.0518 23.815 18.1733 25 20.1059 25C21.2649 25 21.408 24.7371 21.408 24.2836V22.6314C21.408 22.105 21.5177 22 21.885 22C22.1559 22 22.6191 22.1371 23.701 23.1907C24.9371 24.44 25.1405 25 25.8363 25H27.6592C28.18 25 28.4412 24.7371 28.2912 24.2171C28.1259 23.7 27.5356 22.9493 26.753 22.0586C26.328 21.5514 25.6905 21.005 25.4968 20.7314C25.2266 20.3807 25.3037 20.2243 25.4968 19.9121C25.4968 19.9121 27.7189 16.7507 27.9502 15.6771" fill="white"/>
</svg>
